<svg width="90" height="18" viewBox="0 0 90 18" fill="none" xmlns="http://www.w3.org/2000/svg">
<path d="M2.64 17.16H0V0H7.152C10.944 0 12.984 1.776 12.984 4.944C12.984 7.128 11.664 8.712 9.768 9.144V9.192C13.752 9.936 12.288 16.704 13.224 16.992V17.16H10.392C9.624 16.44 11.256 10.44 7.056 10.44H2.64V17.16ZM2.64 8.16H6.576C9 8.16 10.32 7.104 10.32 5.136C10.32 3.288 9.264 2.28 6.624 2.28H2.64V8.16Z" fill="currentColor"/>
<path d="M20.3402 17.52C16.5242 17.52 14.2202 14.88 14.2202 11.04C14.2202 7.224 16.5242 4.536 20.3642 4.536C24.1562 4.536 26.4602 7.2 26.4602 11.016C26.4602 14.856 24.1562 17.52 20.3402 17.52ZM20.3642 15.576C22.8602 15.576 24.0122 13.584 24.0122 11.04C24.0122 8.472 22.8602 6.504 20.3642 6.504C17.8202 6.504 16.6682 8.472 16.6682 11.04C16.6682 13.584 17.8202 15.576 20.3642 15.576Z" fill="currentColor"/>
<path d="M33.0459 17.496C29.3259 17.496 27.4779 15.576 27.4059 13.08H29.7819C29.8779 14.496 30.7419 15.6 33.0219 15.6C35.0859 15.6 35.6379 14.688 35.6379 13.8C35.6379 12.264 34.0059 12.096 32.4219 11.76C30.2859 11.256 27.8379 10.632 27.8379 8.088C27.8379 5.976 29.5419 4.56 32.4939 4.56C35.8539 4.56 37.4619 6.36 37.6299 8.472H35.2539C35.0859 7.536 34.5819 6.456 32.5419 6.456C30.9579 6.456 30.2859 7.08 30.2859 7.992C30.2859 9.264 31.6539 9.384 33.3819 9.768C35.6379 10.296 38.0859 10.944 38.0859 13.68C38.0859 16.056 36.2619 17.496 33.0459 17.496Z" fill="currentColor"/>
<path d="M44.1596 17.16H41.4956V2.28H35.9516V0H49.7036V2.28H44.1596V17.16Z" fill="currentColor"/>
<path d="M53.6983 17.52C49.8823 17.52 47.5783 14.88 47.5783 11.04C47.5783 7.224 49.8823 4.536 53.7223 4.536C57.5143 4.536 59.8183 7.2 59.8183 11.016C59.8183 14.856 57.5143 17.52 53.6983 17.52ZM53.7223 15.576C56.2183 15.576 57.3703 13.584 57.3703 11.04C57.3703 8.472 56.2183 6.504 53.7223 6.504C51.1783 6.504 50.0263 8.472 50.0263 11.04C50.0263 13.584 51.1783 15.576 53.7223 15.576Z" fill="currentColor"/>
<path d="M67.0521 17.52C63.2361 17.52 60.9321 14.88 60.9321 11.04C60.9321 7.224 63.2361 4.536 67.0761 4.536C70.8681 4.536 73.1721 7.2 73.1721 11.016C73.1721 14.856 70.8681 17.52 67.0521 17.52ZM67.0761 15.576C69.5721 15.576 70.7241 13.584 70.7241 11.04C70.7241 8.472 69.5721 6.504 67.0761 6.504C64.5321 6.504 63.3801 8.472 63.3801 11.04C63.3801 13.584 64.5321 15.576 67.0761 15.576Z" fill="currentColor"/>
<path d="M77.2858 17.16H74.9338V0H77.2858V17.16Z" fill="currentColor"/>
<path d="M84.51 17.496C80.79 17.496 78.942 15.576 78.87 13.08H81.246C81.342 14.496 82.206 15.6 84.486 15.6C86.55 15.6 87.102 14.688 87.102 13.8C87.102 12.264 85.47 12.096 83.886 11.76C81.75 11.256 79.302 10.632 79.302 8.088C79.302 5.976 81.006 4.56 83.958 4.56C87.318 4.56 88.926 6.36 89.094 8.472H86.718C86.55 7.536 86.046 6.456 84.006 6.456C82.422 6.456 81.75 7.08 81.75 7.992C81.75 9.264 83.118 9.384 84.846 9.768C87.102 10.296 89.55 10.944 89.55 13.68C89.55 16.056 87.726 17.496 84.51 17.496Z" fill="currentColor"/>
</svg>
