<svg width="165" height="44" viewBox="0 0 165 44" fill="none" xmlns="http://www.w3.org/2000/svg">
<g clip-path="url(#clip0_3855_42105)">
<g clip-path="url(#clip1_3855_42105)">
<path d="M20.075 26.0417C14.4163 26.0417 9.31034 24.5162 5.65865 22.0711V12.6467H0V30.7947C0 36.5543 5.76442 41.4364 13.75 43.1569L24.4591 25.7255C23.0073 25.9364 21.5421 26.0421 20.075 26.0417Z" fill="#E32A28"/>
<path d="M34.8155 13.0129V21.942L21.3828 43.7918C31.5182 43.3729 39.6095 38.0771 40.1383 31.4797H40.1674V13.0367L34.8155 13.0129Z" fill="#CD2327"/>
<path d="M5.65865 22.0711C5.78132 21.8888 5.89344 21.6997 5.99447 21.5047L19.213 0C8.52765 0.292455 0 6.00719 0 13.0129C0 16.4381 2.31106 19.742 5.65865 22.0711Z" fill="#2A3E80"/>
<path d="M26.7755 0.732463L16.1562 18.0084C17.4564 17.8369 18.7662 17.7489 20.0776 17.7449C25.8738 17.7449 31.0909 19.3257 34.7558 21.8867C38.1034 19.5602 40.1553 16.4381 40.1553 13.0024C40.1553 7.33246 34.5707 2.51091 26.7755 0.721924" fill="#1558A1"/>
<path d="M34.7537 21.8972C34.7537 21.8972 40.1691 19.0385 40.1532 13.0129C40.1374 7.31398 34.3359 2.38176 26.7734 0.732422C26.7734 0.732422 39.2859 3.41722 39.6852 13.0735C39.8756 17.6816 34.7537 21.8972 34.7537 21.8972Z" fill="#213468"/>
<path d="M5.39955 21.8972C5.39955 21.8972 -0.0158306 19.0385 3.47925e-05 13.0129C0.0159002 7.31397 5.83056 2.37121 13.3798 0.732407C13.3798 0.732407 0.867343 3.4172 0.468064 13.0735C0.264458 17.6816 5.39955 21.8972 5.39955 21.8972Z" fill="#213468"/>
<path d="M72.9531 36.5964C68.7752 36.5964 65.3245 35.2132 62.601 32.4467C59.8774 29.6803 58.5156 26.2683 58.5156 22.2108C58.5156 18.127 59.8774 14.7088 62.601 11.9564C65.3245 9.204 68.7752 7.8269 72.9531 7.82516C75.3871 7.80569 77.7852 8.41186 79.9154 9.58516C81.9729 10.6947 83.6892 12.3402 84.8813 14.3461L80.1719 17.0731C79.4928 15.8463 78.474 14.8402 77.2368 14.1749C75.9231 13.4637 74.4482 13.1008 72.9531 13.121C70.256 13.121 68.0817 13.9641 66.4298 15.6503C64.778 17.3365 63.9514 19.5234 63.9495 22.2108C63.9495 24.8719 64.7764 27.0455 66.4298 28.7318C68.0832 30.418 70.2579 31.2611 72.9531 31.2611C74.4548 31.2801 75.9364 30.9175 77.2579 30.2072C78.4886 29.5564 79.5 28.5597 80.1666 27.3406L84.8813 30.0755C83.6903 32.08 81.9771 33.7259 79.9233 34.8391C77.7878 36.0163 75.3829 36.6217 72.9426 36.5964" fill="#151517"/>
<path d="M104.052 8.37842V13.5952H93.7392V36.0431H88.2656V8.37842H104.052Z" fill="#151517"/>
<path d="M119.399 7.82528C123.573 7.82528 127.023 9.20235 129.749 11.9565C132.474 14.7107 133.837 18.1288 133.837 22.2109C133.837 26.2684 132.474 29.6804 129.749 32.4468C127.023 35.2133 123.573 36.5965 119.399 36.5965C116.972 36.6197 114.58 36.014 112.458 34.8392C110.404 33.726 108.691 32.0801 107.5 30.0756L112.22 27.3486C112.886 28.5682 113.897 29.5652 115.129 30.2152C116.437 30.9226 117.905 31.2854 119.394 31.2691C121.639 31.2691 123.529 30.6834 125.063 29.5117C126.607 28.3295 127.679 26.638 128.085 24.7402H115.71V19.642H128.085C127.678 17.7493 126.61 16.062 125.071 14.8811C123.537 13.7095 121.647 13.1228 119.402 13.1211C117.919 13.1036 116.457 13.4665 115.155 14.175C113.918 14.8398 112.9 15.8461 112.223 17.0732L107.5 14.3462C108.695 12.339 110.415 10.6932 112.476 9.58528C114.594 8.41501 116.978 7.80881 119.399 7.82528Z" fill="#151517"/>
<path d="M164.857 8.37842V36.0431H159.42V18.1006L151.609 30.9449H150.975L143.158 18.1401V36.0431H137.688V8.37842H143.32L151.289 21.4599L159.222 8.37842H164.857Z" fill="#151517"/>
</g>
</g>
<defs>
<clipPath id="clip0_3855_42105">
<rect width="165" height="44" fill="white"/>
</clipPath>
<clipPath id="clip1_3855_42105">
<rect width="165" height="44" fill="white"/>
</clipPath>
</defs>
</svg>
