<svg width="187" height="55" viewBox="0 0 187 55" fill="none" xmlns="http://www.w3.org/2000/svg">
<g clip-path="url(#clip0_3855_42128)">
<path d="M148.199 13.9893L147.458 15.8222H150.902L147.661 24.967H147.393L147.113 24.9742H136.602L139.722 16.407C139.95 15.8076 140.059 15.3105 140.05 14.9231C140.039 14.5813 139.969 14.3054 139.841 14.1081C139.712 13.9107 139.555 13.7663 139.36 13.6695C139.146 13.5653 138.93 13.5141 138.697 13.5141H138.672C137.482 13.4611 136.5 13.611 135.746 13.9583C134.934 14.3311 134.163 14.8043 133.454 15.3653L124.831 22.3062L127.783 14.0734H121.724L117.814 24.9742H107.27L111.157 14.0734H105.141L103.349 19.0952H97.3457L99.1814 14.0734H93.08L89.0837 24.934L89.0912 24.9358L89.069 24.998H74.5323C71.4586 24.998 70.9991 23.4611 70.9991 22.5455C70.9991 22.2275 71.0618 21.8804 71.1873 21.5112L73.1098 15.9611H79.0709L78.2186 18.2637H77.3791C76.7942 18.2875 76.3017 18.6731 76.1319 19.2031L75.702 20.4366L75.6965 20.4421L82.6465 20.4495C83.8144 19.6381 84.3551 18.6822 84.2997 17.5309C84.2315 16.3558 83.4805 15.5189 81.9344 14.903C80.6724 14.4005 79.1761 14.1446 77.4861 14.1446H56.4107L56.2318 13.6329C55.7447 12.2495 54.7945 11.005 53.4052 9.9359L52.4736 9.21958L62.0749 4.11539C63.2631 3.48857 64.086 2.6882 64.5195 1.73791C64.7317 1.27373 64.8811 0.690786 64.9696 0H0V2.70831H59.6173L46.136 9.64533C47.4146 10.7564 48.3905 11.9517 49.0418 13.2071L49.5437 14.1757L48.4496 14.3091C44.7301 14.7623 41.4367 16.0854 38.6582 18.2419C35.5531 20.6413 33.8575 23.6237 33.6195 27.1105C33.5198 28.7772 33.9682 30.0509 34.9922 31.0031C36.0291 31.968 37.459 32.4559 39.2431 32.4559C43.2928 32.4559 47.2633 30.9592 51.0419 28.0079C55.0067 24.9048 57.0159 21.4125 57.0159 17.6241C57.0159 17.1472 56.9938 16.9242 56.9809 16.8329L56.8572 15.9648H67.2446L66.0582 17.2403C64.9771 18.4026 64.4291 19.8244 64.4291 21.4655C64.4291 22.7904 64.4291 26.82 73.9825 26.82H91.2922L91.2812 26.8108H94.5375L96.6796 20.9319H102.67L100.572 26.8108H120.004C120.347 26.8108 120.736 26.7322 121.159 26.5787C121.626 26.4088 122.058 26.2206 122.441 26.0196C122.823 25.8185 123.273 25.5444 123.777 25.2045L133.244 17.3427L130.688 24.4735C130.377 25.3269 130.341 25.9538 130.587 26.29C130.829 26.6226 131.557 26.8127 132.585 26.8127H153.039L156.921 15.8259H186.998V13.993H148.199V13.9893ZM47.5381 26.6007C45.2005 29.3218 42.8648 30.6997 40.5991 30.6997C39.0567 30.6997 38.1711 29.753 38.1711 28.101C38.1711 26.184 39.2947 23.8321 41.6065 20.9118C42.4958 19.7879 43.7171 18.7334 45.2411 17.7739C46.8721 16.7286 48.3851 16.1219 49.7301 15.9684L50.2042 15.9155L50.4643 16.3102C50.6968 16.6611 50.8462 16.9717 50.9255 17.2604L50.9459 17.3628C50.992 17.7265 51.016 18.1103 51.016 18.4995C51.0141 21.1914 49.8444 23.9161 47.5381 26.6007Z" fill="#333333"/>
<path d="M6.21695 50.0593C6.17121 50.48 6.07168 50.8566 5.91899 51.1903C5.76569 51.5233 5.56045 51.8056 5.30206 52.0365C5.04428 52.2673 4.73458 52.4449 4.37295 52.5673C4.01193 52.6904 3.60147 52.7522 3.14278 52.7522C2.66865 52.7522 2.2384 52.6628 1.85266 52.4853C1.4663 52.3071 1.13558 52.0542 0.860495 51.7266C0.585408 51.3997 0.372757 51.006 0.223778 50.548C0.0747988 50.09 0 49.5817 0 49.0252V47.9861C0 47.4289 0.0747988 46.9207 0.223778 46.4608C0.372757 46.0004 0.586027 45.6073 0.862968 45.2822C1.14053 44.9564 1.47558 44.7035 1.86935 44.5235C2.26313 44.3441 2.7045 44.2541 3.19409 44.2541C3.63732 44.2541 4.03728 44.3147 4.39273 44.436C4.74818 44.5572 5.05293 44.7342 5.30762 44.9668C5.56169 45.2001 5.7663 45.4842 5.92085 45.8191C6.07601 46.1547 6.1743 46.5343 6.21633 46.958H5.50544C5.4634 46.6249 5.38675 46.3267 5.27609 46.0635C5.16482 45.8002 5.01523 45.5797 4.82607 45.4016C4.63629 45.2234 4.40695 45.0868 4.13804 44.9925C3.8679 44.8982 3.55387 44.8511 3.19471 44.8511C2.80464 44.8511 2.45661 44.9258 2.15124 45.0752C1.84524 45.2246 1.58499 45.4358 1.3711 45.7083C1.1566 45.9808 0.993402 46.3096 0.880894 46.6935C0.767769 47.078 0.711515 47.5048 0.711515 47.9744V49.0258C0.711515 49.4801 0.764678 49.9001 0.87224 50.2841C0.979184 50.6686 1.1362 50.9998 1.34267 51.2784C1.54914 51.5564 1.80321 51.7738 2.10549 51.9287C2.40716 52.0842 2.75334 52.162 3.1434 52.162C3.88088 52.162 4.43724 51.9869 4.81247 51.6366C5.18708 51.287 5.41827 50.761 5.50667 50.0606H6.21695V50.0593Z" fill="#333333"/>
<path d="M8.19531 52.6377V46.4914H10.472C10.8504 46.4914 11.1897 46.5251 11.4895 46.5906C11.79 46.6567 12.0459 46.7571 12.2579 46.8919C12.4706 47.0266 12.6325 47.1968 12.7457 47.4031C12.8582 47.6095 12.9144 47.8526 12.9144 48.1324C12.9144 48.4398 12.8205 48.7128 12.6332 48.9535C12.4459 49.1947 12.172 49.3692 11.8129 49.4788C12.0193 49.5168 12.206 49.5811 12.3717 49.6717C12.5386 49.7623 12.6795 49.8725 12.7964 50.0011C12.9132 50.1297 13.0028 50.2736 13.0665 50.4328C13.1296 50.592 13.1611 50.7585 13.1611 50.9324C13.1611 51.2165 13.1067 51.4645 12.9979 51.6764C12.8885 51.8889 12.7339 52.0658 12.533 52.2079C12.3327 52.3493 12.0916 52.4565 11.8104 52.5287C11.5297 52.6003 11.2151 52.6365 10.8671 52.6365H8.19531V52.6377ZM8.87777 49.2413H10.6155C11.1508 49.2333 11.5538 49.1384 11.8258 48.9541C12.0972 48.7704 12.2332 48.5028 12.2332 48.1501C12.2332 47.7754 12.0848 47.5017 11.7887 47.329C11.4926 47.157 11.0537 47.0706 10.4727 47.0706H8.87839V49.2413H8.87777ZM8.87777 49.8089V52.0695H10.8677C11.3838 52.0695 11.7813 51.9709 12.0607 51.7743C12.3395 51.5778 12.4792 51.2937 12.4792 50.922C12.4792 50.581 12.3395 50.3103 12.0607 50.1095C11.7813 49.9093 11.3838 49.8089 10.8677 49.8089H8.87777Z" fill="#333333"/>
<path d="M17.4458 52.7516C17.0403 52.7516 16.6676 52.6769 16.3276 52.5275C15.9869 52.3781 15.6939 52.1693 15.4473 51.9023C15.2006 51.6347 15.0084 51.3182 14.8705 50.9502C14.7327 50.5828 14.6641 50.1799 14.6641 49.7403V49.496C14.6641 49.0233 14.7358 48.594 14.8792 48.2095C15.0226 47.825 15.2167 47.4974 15.4615 47.2268C15.7063 46.9567 15.9882 46.7467 16.3078 46.5998C16.6268 46.4516 16.9643 46.3781 17.3197 46.3781C17.7135 46.3781 18.0634 46.4479 18.3694 46.5881C18.6754 46.7284 18.9325 46.9237 19.1409 47.1735C19.3492 47.4233 19.5068 47.7209 19.6138 48.065C19.7207 48.4097 19.7745 48.7869 19.7745 49.1959V49.6105H15.3471V49.7415C15.3471 50.0789 15.3985 50.3954 15.5017 50.693C15.6049 50.9906 15.7502 51.249 15.9375 51.4688C16.1248 51.688 16.3486 51.8619 16.6082 51.9886C16.8678 52.116 17.1565 52.1791 17.4743 52.1791C17.8415 52.1791 18.1654 52.1136 18.446 51.9807C18.7273 51.8478 18.9826 51.636 19.2119 51.3445L19.6422 51.6684C19.539 51.8154 19.4197 51.9562 19.2837 52.0885C19.1483 52.2213 18.99 52.3364 18.8108 52.435C18.6309 52.5336 18.4281 52.6107 18.2031 52.6683C17.9768 52.7228 17.7246 52.7516 17.4458 52.7516ZM17.3197 46.9574C17.0595 46.9574 16.8184 47.0063 16.5971 47.1049C16.3752 47.2035 16.1792 47.3437 16.0092 47.5256C15.8392 47.7074 15.6995 47.926 15.5901 48.1814C15.4813 48.4373 15.4077 48.7202 15.3694 49.0312H19.0914V48.9571C19.0834 48.6994 19.0413 48.4508 18.9653 48.2101C18.8886 47.9695 18.7768 47.7564 18.6296 47.5709C18.4825 47.3854 18.3001 47.2366 18.0819 47.1245C17.8643 47.0137 17.6096 46.9574 17.3197 46.9574Z" fill="#333333"/>
<path d="M25.8553 47.0716H23.5959V52.6387H22.9079V47.0716H20.7344V46.4924H25.8559L25.8553 47.0716Z" fill="#333333"/>
<path d="M26.7109 49.4739C26.7109 49.0276 26.7765 48.6149 26.9088 48.2365C27.0404 47.8574 27.2271 47.5311 27.4676 47.2562C27.7081 46.9812 27.9986 46.7663 28.3392 46.6108C28.6792 46.4559 29.0581 46.3781 29.4748 46.3781C29.8995 46.3781 30.2827 46.4559 30.6246 46.6108C30.9664 46.7663 31.2582 46.9812 31.4993 47.2562C31.7404 47.5311 31.9252 47.8568 32.0556 48.2365C32.1855 48.6149 32.2504 49.0276 32.2504 49.4739V49.6619C32.2504 50.1083 32.1855 50.5216 32.0556 50.9C31.9258 51.2784 31.7404 51.6053 31.4993 51.8803C31.2582 52.1552 30.9677 52.3689 30.6277 52.522C30.2871 52.6756 29.9069 52.7522 29.4865 52.7522C29.0656 52.7522 28.6854 52.6756 28.3454 52.522C28.0048 52.3689 27.7136 52.1546 27.4707 51.8803C27.2277 51.606 27.0404 51.279 26.9088 50.9C26.7765 50.5216 26.7109 50.1083 26.7109 49.6619V49.4739ZM27.3996 49.6613C27.3996 49.9987 27.4453 50.3195 27.5374 50.6238C27.6289 50.9288 27.7631 51.1963 27.9386 51.4253C28.1142 51.6543 28.3324 51.8368 28.5927 51.9733C28.8523 52.1099 29.1509 52.1778 29.4871 52.1778C29.8234 52.1778 30.1208 52.1099 30.3786 51.9733C30.6369 51.8368 30.8539 51.6543 31.0295 51.4253C31.205 51.1963 31.3392 50.9288 31.4307 50.6238C31.5222 50.3195 31.5685 49.9987 31.5685 49.6613V49.4733C31.5685 49.1445 31.5228 48.8267 31.4307 48.5218C31.3392 48.2175 31.205 47.9487 31.0295 47.7178C30.8533 47.487 30.6345 47.3021 30.373 47.1643C30.1109 47.0259 29.8117 46.9568 29.4754 46.9568C29.1428 46.9568 28.8473 47.0259 28.5889 47.1643C28.3312 47.3027 28.1136 47.487 27.938 47.7178C27.7618 47.9487 27.6283 48.2169 27.5368 48.5218C27.4453 48.8267 27.399 49.1445 27.399 49.4733L27.3996 49.6613Z" fill="#333333"/>
<path d="M38.3475 47.0711H36.0881V52.6382H35.4001V47.0711H33.2266V46.4919H38.3481L38.3475 47.0711Z" fill="#333333"/>
<path d="M41.774 52.7516C41.3684 52.7516 40.9957 52.6769 40.6557 52.5275C40.3151 52.3781 40.0221 52.1693 39.7754 51.9023C39.5288 51.6347 39.3365 51.3182 39.1987 50.9502C39.0608 50.5828 38.9922 50.1799 38.9922 49.7403V49.496C38.9922 49.0233 39.0639 48.594 39.2073 48.2095C39.3507 47.825 39.5448 47.4974 39.7896 47.2268C40.0344 46.9567 40.3163 46.7467 40.6359 46.5998C40.9549 46.4516 41.2924 46.3781 41.6479 46.3781C42.0416 46.3781 42.3915 46.4479 42.6975 46.5881C43.0035 46.7284 43.2607 46.9237 43.469 47.1735C43.6773 47.4233 43.8349 47.7209 43.9419 48.065C44.0488 48.4097 44.1026 48.7869 44.1026 49.1959V49.6105H39.6753V49.7415C39.6753 50.0789 39.7266 50.3954 39.8298 50.693C39.933 50.9906 40.0783 51.249 40.2656 51.4688C40.4529 51.688 40.6767 51.8619 40.9363 51.9886C41.196 52.116 41.4847 52.1791 41.8024 52.1791C42.1696 52.1791 42.4935 52.1136 42.7742 51.9807C43.0554 51.8478 43.3107 51.636 43.5401 51.3445L43.9703 51.6684C43.8671 51.8154 43.7478 51.9562 43.6118 52.0885C43.4764 52.2213 43.3182 52.3364 43.1389 52.435C42.959 52.5336 42.7562 52.6107 42.5312 52.6683C42.305 52.7228 42.0528 52.7516 41.774 52.7516ZM41.6479 46.9574C41.3876 46.9574 41.1465 47.0063 40.9252 47.1049C40.7033 47.2035 40.5073 47.3437 40.3373 47.5256C40.1673 47.7074 40.0276 47.926 39.9182 48.1814C39.8094 48.4373 39.7358 48.7202 39.6975 49.0312H43.4195V48.9571C43.4115 48.6994 43.3695 48.4508 43.2934 48.2101C43.2168 47.9695 43.1049 47.7564 42.9578 47.5709C42.8106 47.3854 42.6283 47.2366 42.4101 47.1245C42.1925 47.0137 41.9378 46.9574 41.6479 46.9574Z" fill="#333333"/>
<path d="M47.741 48.9863L49.4156 46.4924H50.2298L48.1249 49.5092L50.3212 52.6387H49.5127L47.7466 50.037L45.9804 52.6387H45.1719L47.3627 49.5092L45.2578 46.4924H46.0664L47.741 48.9863Z" fill="#333333"/>
<path d="M56.6182 52.6377H55.9301V49.8199H52.5865V52.6377H51.8984V46.4914H52.5865V49.2462H55.9301V46.4914H56.6182V52.6377Z" fill="#333333"/>
<path d="M62.8833 46.4914H63.5713V52.6377H62.8833V47.5874L59.534 52.6377H58.8516V46.4914H59.534V51.5472L62.8833 46.4914Z" fill="#333333"/>
<path d="M70.1718 52.6377H69.4837V50.0532C69.2426 50.1401 68.9818 50.213 68.7005 50.2711C68.4198 50.3305 68.1392 50.3593 67.8604 50.3593C67.474 50.3593 67.1341 50.3201 66.8398 50.2405C66.5449 50.1609 66.2989 50.0305 66.0999 49.8487C65.9008 49.6668 65.75 49.4274 65.6467 49.1323C65.5435 48.8371 65.4922 48.4759 65.4922 48.0479V46.4914H66.1747V48.0479C66.1747 48.3773 66.2093 48.6528 66.2779 48.8745C66.3465 49.0961 66.4497 49.2731 66.5876 49.4054C66.7254 49.5382 66.8998 49.6325 67.1124 49.6901C67.3244 49.7464 67.5742 49.7752 67.8604 49.7752C68.1509 49.7672 68.4365 49.7366 68.7178 49.6815C68.9985 49.627 69.2538 49.5597 69.4831 49.4801V46.492H70.1711V52.6377H70.1718Z" fill="#333333"/>
<path d="M74.7661 52.7516C74.3606 52.7516 73.9879 52.6769 73.6479 52.5275C73.3073 52.3781 73.0142 52.1693 72.7676 51.9024C72.5209 51.6348 72.3287 51.3182 72.1908 50.9502C72.053 50.5828 71.9844 50.18 71.9844 49.7403V49.496C71.9844 49.0233 72.0561 48.5941 72.1995 48.2096C72.3429 47.825 72.537 47.4975 72.7818 47.2268C73.0266 46.9568 73.3085 46.7468 73.6281 46.5998C73.9471 46.4516 74.2846 46.3782 74.64 46.3782C75.0338 46.3782 75.3837 46.448 75.6897 46.5882C75.9957 46.7284 76.2529 46.9237 76.4612 47.1736C76.6695 47.4234 76.8271 47.7209 76.9341 48.0651C77.041 48.4098 77.0948 48.787 77.0948 49.196V49.6105H72.6675V49.7415C72.6675 50.0789 72.7188 50.3955 72.822 50.6931C72.9252 50.9906 73.0705 51.249 73.2578 51.4688C73.4451 51.6881 73.6689 51.8619 73.9285 51.9887C74.1882 52.116 74.4768 52.1791 74.7946 52.1791C75.1618 52.1791 75.4857 52.1136 75.7664 51.9807C76.0476 51.8479 76.3029 51.636 76.5323 51.3446L76.9625 51.6685C76.8593 51.8154 76.74 51.9562 76.604 52.0885C76.4686 52.2214 76.3103 52.3365 76.1311 52.4351C75.9512 52.5336 75.7484 52.6108 75.5234 52.6683C75.2978 52.7228 75.0449 52.7516 74.7661 52.7516ZM74.64 46.9574C74.3798 46.9574 74.1387 47.0064 73.9174 47.105C73.6955 47.2036 73.4995 47.3438 73.3295 47.5256C73.1595 47.7075 73.0198 47.9261 72.9104 48.1814C72.8016 48.4373 72.728 48.7202 72.6897 49.0313H76.4117V48.9572C76.4037 48.6994 76.3616 48.4508 76.2856 48.2102C76.209 47.9695 76.0971 47.7565 75.9499 47.5709C75.8028 47.3854 75.6205 47.2366 75.4022 47.1246C75.1853 47.0137 74.9306 46.9574 74.64 46.9574Z" fill="#333333"/>
<path d="M81.0779 52.1781C81.2962 52.1781 81.5051 52.1469 81.706 52.085C81.9069 52.022 82.0855 51.9307 82.2426 51.8095C82.399 51.6883 82.5282 51.5389 82.6295 51.3607C82.7309 51.1831 82.789 50.9768 82.8045 50.7416H83.4641C83.4486 51.0337 83.3751 51.3019 83.2434 51.548C83.1117 51.7942 82.9374 52.006 82.7217 52.1842C82.5053 52.3624 82.2562 52.502 81.973 52.6018C81.6899 52.7022 81.392 52.7524 81.0786 52.7524C80.6427 52.7524 80.2601 52.6734 79.9318 52.5167C79.603 52.3593 79.3267 52.1426 79.1029 51.8658C78.8797 51.5897 78.711 51.2652 78.5984 50.8917C78.4859 50.5188 78.4297 50.1159 78.4297 49.6842V49.4454C78.4297 49.0137 78.4859 48.6114 78.5984 48.2379C78.7116 47.8657 78.8785 47.5411 79.1004 47.2668C79.3217 46.9925 79.5986 46.7752 79.9288 46.616C80.2595 46.4568 80.6409 46.3772 81.073 46.3772C81.4056 46.3772 81.7147 46.428 81.9996 46.5308C82.284 46.6325 82.5325 46.7782 82.7451 46.968C82.9572 47.1578 83.1266 47.3881 83.2527 47.6581C83.3788 47.9287 83.4492 48.2312 83.4647 48.5637H82.8051C82.7896 48.3139 82.7353 48.091 82.6419 47.8938C82.5479 47.6967 82.4237 47.5277 82.2685 47.3881C82.114 47.2478 81.9341 47.1413 81.7295 47.0672C81.5249 46.9937 81.306 46.9564 81.073 46.9564C80.7175 46.9564 80.4165 47.0244 80.1698 47.1609C79.9238 47.2974 79.7217 47.4805 79.5646 47.712C79.4076 47.9428 79.2939 48.2079 79.2234 48.5074C79.1523 48.8062 79.1171 49.1184 79.1171 49.4442V49.683C79.1171 50.0124 79.1523 50.3277 79.2234 50.629C79.2939 50.9296 79.407 51.1954 79.5616 51.4244C79.7167 51.6534 79.9195 51.8358 80.1692 51.9724C80.4196 52.1095 80.7225 52.1781 81.0779 52.1781Z" fill="#333333"/>
<path d="M86.8728 49.8209H85.9208V52.6387H85.2266V46.4924H85.9208V49.219H86.861L89.1377 46.4924H90.0038L87.4575 49.4743L90.2851 52.6387H89.3788L86.8728 49.8209Z" fill="#333333"/>
<path d="M91.125 49.4739C91.125 49.0276 91.1905 48.6149 91.3228 48.2365C91.4545 47.8574 91.6412 47.5311 91.8816 47.2562C92.1221 46.9812 92.4127 46.7663 92.7533 46.6108C93.0933 46.4559 93.4722 46.3781 93.8889 46.3781C94.3135 46.3781 94.6968 46.4559 95.0393 46.6108C95.3811 46.7663 95.6723 46.9812 95.9134 47.2562C96.1544 47.5311 96.3393 47.8568 96.4697 48.2365C96.5995 48.6149 96.6644 49.0276 96.6644 49.4739V49.6619C96.6644 50.1083 96.5995 50.5216 96.4697 50.9C96.3393 51.2784 96.1538 51.6053 95.9134 51.8803C95.6729 52.1552 95.3823 52.3689 95.0417 52.522C94.7011 52.6756 94.321 52.7522 93.9006 52.7522C93.4796 52.7522 93.0994 52.6756 92.7594 52.522C92.4188 52.3689 92.1277 52.1546 91.8847 51.8803C91.6418 51.606 91.4545 51.279 91.3228 50.9C91.1905 50.5216 91.125 50.1083 91.125 49.6619V49.4739ZM91.813 49.6613C91.813 49.9987 91.8588 50.3195 91.9509 50.6238C92.0424 50.9288 92.1765 51.1963 92.3521 51.4253C92.5276 51.6543 92.7458 51.8368 93.0061 51.9733C93.2657 52.1099 93.5643 52.1778 93.9006 52.1778C94.2369 52.1778 94.5348 52.1099 94.7926 51.9733C95.051 51.8368 95.268 51.6543 95.4436 51.4253C95.6191 51.1963 95.7533 50.9288 95.8447 50.6238C95.9362 50.3195 95.9826 49.9987 95.9826 49.6613V49.4733C95.9826 49.1445 95.9369 48.8267 95.8447 48.5218C95.7533 48.2175 95.6191 47.9487 95.4436 47.7178C95.268 47.487 95.0485 47.3021 94.787 47.1643C94.5249 47.0259 94.2251 46.9568 93.8889 46.9568C93.5563 46.9568 93.2608 47.0259 93.0024 47.1643C92.7446 47.3027 92.527 47.487 92.3515 47.7178C92.1753 47.9487 92.0418 48.2169 91.9503 48.5218C91.8588 48.8267 91.8124 49.1445 91.8124 49.4733V49.6613H91.813Z" fill="#333333"/>
<path d="M100.836 52.7516C100.432 52.7516 100.058 52.6769 99.7182 52.5275C99.3776 52.3781 99.0846 52.1693 98.8379 51.9023C98.5913 51.6347 98.399 51.3182 98.2612 50.9502C98.1233 50.5828 98.0547 50.1799 98.0547 49.7403V49.496C98.0547 49.0233 98.1264 48.594 98.2698 48.2095C98.4132 47.825 98.6073 47.4974 98.8515 47.2268C99.0963 46.9567 99.3788 46.7467 99.6978 46.5998C100.017 46.4516 100.354 46.3781 100.71 46.3781C101.104 46.3781 101.453 46.4479 101.759 46.5881C102.065 46.7284 102.322 46.9237 102.531 47.1735C102.739 47.4233 102.897 47.7209 103.004 48.065C103.111 48.4097 103.164 48.7869 103.164 49.1959V49.6105H98.7372V49.7415C98.7372 50.0789 98.7891 50.3954 98.8923 50.693C98.9956 50.9906 99.1402 51.249 99.3281 51.4688C99.5154 51.688 99.7386 51.8619 99.9988 51.9886C100.259 52.116 100.548 52.1791 100.865 52.1791C101.232 52.1791 101.556 52.1136 101.837 51.9807C102.118 51.8478 102.373 51.636 102.602 51.3445L103.032 51.6684C102.929 51.8154 102.81 51.9562 102.674 52.0885C102.538 52.2213 102.38 52.3364 102.2 52.435C102.02 52.5336 101.818 52.6107 101.592 52.6683C101.367 52.7228 101.115 52.7516 100.836 52.7516ZM100.71 46.9574C100.45 46.9574 100.209 47.0063 99.9877 47.1049C99.7664 47.2035 99.5698 47.3437 99.4004 47.5256C99.2305 47.7074 99.0907 47.926 98.9813 48.1814C98.8725 48.4373 98.7983 48.7202 98.7606 49.0312H102.483V48.9571C102.475 48.6994 102.433 48.4508 102.357 48.2101C102.28 47.9695 102.168 47.7564 102.021 47.5709C101.874 47.3854 101.691 47.2366 101.473 47.1245C101.255 47.0137 101 46.9574 100.71 46.9574Z" fill="#333333"/>
<path d="M112.829 52.6377H112.141V47.0768H108.797V52.6377H108.109V46.4914H112.83L112.829 52.6377Z" fill="#333333"/>
<path d="M120.003 49.6273C120.003 50.0895 119.95 50.5114 119.845 50.8941C119.74 51.2762 119.586 51.605 119.383 51.8793C119.18 52.1536 118.933 52.3679 118.641 52.521C118.348 52.6747 118.015 52.7512 117.64 52.7512C117.196 52.7512 116.813 52.6722 116.49 52.5155C116.168 52.3581 115.9 52.1414 115.69 51.8646V55.0002H115.008V46.491H115.644L115.679 47.3599C115.889 47.0537 116.155 46.8125 116.476 46.6386C116.797 46.4647 117.179 46.3772 117.623 46.3772C118.001 46.3772 118.339 46.4506 118.635 46.5988C118.931 46.7458 119.18 46.9564 119.383 47.2289C119.586 47.5013 119.74 47.8301 119.845 48.2141C119.95 48.5986 120.003 49.0296 120.003 49.5066V49.6273ZM119.315 49.5085C119.315 49.1521 119.277 48.819 119.203 48.5086C119.128 48.1975 119.015 47.9287 118.864 47.7016C118.713 47.4744 118.521 47.2956 118.288 47.1652C118.054 47.0342 117.781 46.9692 117.468 46.9692C117.219 46.9692 116.999 47.0017 116.809 47.0654C116.617 47.1297 116.45 47.216 116.306 47.3244C116.163 47.4322 116.04 47.5571 115.939 47.6991C115.838 47.8406 115.755 47.99 115.69 48.1455V51.0931C115.762 51.2486 115.853 51.3919 115.962 51.5248C116.071 51.6576 116.199 51.7715 116.346 51.8689C116.493 51.965 116.661 52.0409 116.848 52.0961C117.035 52.1512 117.246 52.1781 117.479 52.1781C117.793 52.1781 118.064 52.1132 118.293 51.9828C118.523 51.8517 118.713 51.6723 118.864 51.4427C119.015 51.2137 119.128 50.9443 119.203 50.6333C119.277 50.3228 119.315 49.9879 119.315 49.6279V49.5085Z" fill="#333333"/>
<path d="M121.501 49.4739C121.501 49.0276 121.566 48.6149 121.698 48.2365C121.83 47.8574 122.017 47.5311 122.257 47.2562C122.498 46.9812 122.788 46.7663 123.129 46.6108C123.469 46.4559 123.847 46.3781 124.264 46.3781C124.689 46.3781 125.072 46.4559 125.414 46.6108C125.756 46.7663 126.047 46.9812 126.288 47.2562C126.529 47.5311 126.714 47.8568 126.845 48.2365C126.975 48.6149 127.039 49.0276 127.039 49.4739V49.6619C127.039 50.1083 126.975 50.5216 126.845 50.9C126.714 51.2784 126.529 51.6053 126.288 51.8803C126.048 52.1552 125.757 52.3689 125.417 52.522C125.076 52.6756 124.696 52.7522 124.276 52.7522C123.855 52.7522 123.474 52.6756 123.134 52.522C122.793 52.3689 122.503 52.1546 122.26 51.8803C122.016 51.606 121.829 51.279 121.698 50.9C121.566 50.5216 121.5 50.1083 121.5 49.6619L121.501 49.4739ZM122.189 49.6613C122.189 49.9987 122.235 50.3195 122.327 50.6238C122.419 50.9288 122.552 51.1963 122.728 51.4253C122.904 51.6543 123.122 51.8368 123.382 51.9733C123.642 52.1099 123.94 52.1778 124.277 52.1778C124.613 52.1778 124.91 52.1099 125.168 51.9733C125.427 51.8368 125.644 51.6543 125.819 51.4253C125.995 51.1963 126.129 50.9288 126.22 50.6238C126.312 50.3195 126.358 49.9987 126.358 49.6613V49.4733C126.358 49.1445 126.312 48.8267 126.22 48.5218C126.129 48.2175 125.995 47.9487 125.819 47.7178C125.644 47.487 125.424 47.3021 125.163 47.1643C124.901 47.0259 124.601 46.9568 124.265 46.9568C123.933 46.9568 123.637 47.0259 123.379 47.1643C123.121 47.3027 122.903 47.487 122.728 47.7178C122.552 47.9487 122.418 48.2169 122.326 48.5218C122.235 48.8267 122.189 49.1445 122.189 49.4733L122.189 49.6613Z" fill="#333333"/>
<path d="M132.883 46.4914H133.571V52.6377H132.883V47.5874L129.534 52.6377H128.852V46.4914H129.534V51.5472L132.883 46.4914Z" fill="#333333"/>
<path d="M137.854 49.2067C138.141 49.2067 138.382 49.181 138.577 49.1302C138.772 49.0787 138.93 49.0053 139.053 48.9085C139.175 48.8124 139.263 48.6973 139.317 48.5644C139.371 48.4321 139.397 48.2827 139.397 48.1162C139.397 47.957 139.369 47.8076 139.311 47.668C139.254 47.5278 139.162 47.4053 139.036 47.3012C138.91 47.1971 138.747 47.1132 138.548 47.0514C138.35 46.9883 138.109 46.9577 137.826 46.9577C137.608 46.9577 137.401 46.9871 137.206 47.0459C137.012 47.1053 136.84 47.1861 136.693 47.2902C136.546 47.3943 136.429 47.5198 136.343 47.668C136.257 47.8149 136.215 47.9766 136.215 48.1505H135.532C135.532 47.8817 135.595 47.6386 135.719 47.4206C135.843 47.2032 136.011 47.0177 136.221 46.864C136.431 46.711 136.675 46.5928 136.952 46.5095C137.23 46.4256 137.521 46.384 137.827 46.384C138.179 46.384 138.494 46.4226 138.773 46.4979C139.052 46.5738 139.29 46.6859 139.484 46.8334C139.679 46.981 139.829 47.1628 139.932 47.379C140.035 47.5951 140.086 47.8449 140.086 48.129C140.086 48.4242 139.995 48.6918 139.811 48.9299C139.628 49.1694 139.361 49.3543 139.008 49.4871C139.409 49.5967 139.709 49.7761 139.906 50.0235C140.102 50.2715 140.201 50.5813 140.201 50.9524C140.201 51.2371 140.144 51.4894 140.029 51.711C139.915 51.9321 139.754 52.12 139.545 52.2731C139.337 52.4268 139.087 52.5437 138.797 52.6252C138.506 52.7066 138.185 52.747 137.833 52.747C137.546 52.747 137.259 52.7103 136.973 52.6362C136.686 52.5627 136.429 52.4488 136.201 52.2951C135.974 52.1421 135.788 51.948 135.645 51.7135C135.502 51.4783 135.43 51.1997 135.43 50.8783H136.118C136.118 51.0565 136.16 51.2242 136.244 51.3834C136.328 51.5426 136.447 51.681 136.599 51.7986C136.752 51.9161 136.934 52.0092 137.144 52.0772C137.355 52.1451 137.584 52.1788 137.833 52.1788C138.108 52.1788 138.351 52.1488 138.561 52.0882C138.771 52.0276 138.946 51.9437 139.086 51.8359C139.226 51.7275 139.33 51.6002 139.401 51.452C139.472 51.3051 139.508 51.1416 139.508 50.964C139.508 50.5507 139.372 50.2537 139.1 50.0719C138.829 49.89 138.414 49.7994 137.856 49.7994H136.91V49.2085H137.854V49.2067Z" fill="#333333"/>
<path d="M142.133 52.6377V46.4914H144.41C144.788 46.4914 145.127 46.5251 145.427 46.5906C145.727 46.6567 145.983 46.7571 146.195 46.8919C146.408 47.0266 146.57 47.1968 146.683 47.4031C146.796 47.6095 146.852 47.8526 146.852 48.1324C146.852 48.4398 146.759 48.7128 146.571 48.9535C146.383 49.1947 146.11 49.3692 145.751 49.4788C145.957 49.5168 146.144 49.5811 146.31 49.6717C146.477 49.7623 146.618 49.8725 146.734 50.0011C146.851 50.1297 146.941 50.2736 147.005 50.4328C147.068 50.592 147.099 50.7585 147.099 50.9324C147.099 51.2165 147.044 51.4645 146.935 51.6764C146.826 51.8889 146.671 52.0658 146.471 52.2079C146.27 52.3493 146.029 52.4565 145.748 52.5287C145.467 52.6003 145.153 52.6365 144.805 52.6365H142.133V52.6377ZM142.815 49.2413H144.554C145.088 49.2333 145.492 49.1384 145.763 48.9541C146.035 48.7704 146.171 48.5028 146.171 48.1501C146.171 47.7754 146.022 47.5017 145.726 47.329C145.43 47.157 144.991 47.0706 144.41 47.0706H142.815V49.2413ZM142.815 49.8089V52.0695H144.806C145.322 52.0695 145.719 51.9709 145.999 51.7743C146.278 51.5778 146.417 51.2937 146.417 50.922C146.417 50.581 146.278 50.3103 145.999 50.1095C145.719 49.9093 145.322 49.8089 144.806 49.8089H142.815Z" fill="#333333"/>
<path d="M148.602 49.4739C148.602 49.0276 148.668 48.6149 148.8 48.2365C148.932 47.8574 149.118 47.5311 149.359 47.2562C149.599 46.9812 149.89 46.7663 150.23 46.6108C150.571 46.4559 150.949 46.3781 151.366 46.3781C151.791 46.3781 152.174 46.4559 152.516 46.6108C152.858 46.7663 153.149 46.9812 153.391 47.2562C153.632 47.5311 153.816 47.8568 153.946 48.2365C154.076 48.6149 154.141 49.0276 154.141 49.4739V49.6619C154.141 50.1083 154.076 50.5216 153.946 50.9C153.816 51.2784 153.631 51.6053 153.391 51.8803C153.15 52.1552 152.859 52.3689 152.519 52.522C152.178 52.6756 151.798 52.7522 151.377 52.7522C150.956 52.7522 150.576 52.6756 150.236 52.522C149.895 52.3689 149.604 52.1546 149.361 51.8803C149.118 51.606 148.931 51.279 148.799 50.9C148.667 50.5216 148.602 50.1083 148.602 49.6619L148.602 49.4739ZM149.291 49.6613C149.291 49.9987 149.337 50.3195 149.429 50.6238C149.52 50.9288 149.654 51.1963 149.83 51.4253C150.005 51.6543 150.224 51.8368 150.484 51.9733C150.744 52.1099 151.042 52.1778 151.378 52.1778C151.715 52.1778 152.012 52.1099 152.27 51.9733C152.528 51.8368 152.745 51.6543 152.921 51.4253C153.097 51.1963 153.231 50.9288 153.323 50.6238C153.414 50.3195 153.46 49.9987 153.46 49.6613V49.4733C153.46 49.1445 153.415 48.8267 153.323 48.5218C153.231 48.2175 153.097 47.9487 152.921 47.7178C152.745 47.487 152.526 47.3021 152.264 47.1643C152.002 47.0266 151.703 46.9568 151.367 46.9568C151.034 46.9568 150.739 47.0259 150.48 47.1643C150.222 47.3027 150.005 47.487 149.829 47.7178C149.654 47.9487 149.52 48.2169 149.428 48.5218C149.337 48.8267 149.29 49.1445 149.29 49.4733L149.291 49.6613Z" fill="#333333"/>
<path d="M155.351 52.0643C155.458 51.9321 155.573 51.7827 155.698 51.6161C155.823 51.4496 155.939 51.2396 156.048 50.9861C156.157 50.732 156.252 50.4227 156.335 50.0566C156.417 49.691 156.47 49.2435 156.493 48.7138L156.596 46.4924H160.26V52.0649H160.903V54.4456H160.22V52.6393H155.557V54.4456H154.898L154.904 52.0649L155.351 52.0643ZM157.175 48.7132C157.155 49.1406 157.116 49.527 157.058 49.8723C156.998 50.217 156.922 50.525 156.831 50.7981C156.739 51.0712 156.634 51.3106 156.516 51.5169C156.397 51.7233 156.272 51.9057 156.142 52.0649H159.572V47.1286H157.249L157.175 48.7132Z" fill="#333333"/>
<path d="M164.875 52.1781C165.094 52.1781 165.303 52.1469 165.504 52.085C165.704 52.022 165.883 51.9307 166.04 51.8095C166.196 51.6883 166.326 51.5389 166.427 51.3607C166.528 51.1831 166.587 50.9768 166.602 50.7416H167.261C167.246 51.0337 167.172 51.3019 167.04 51.548C166.909 51.7942 166.735 52.006 166.519 52.1842C166.302 52.3624 166.053 52.502 165.77 52.6018C165.487 52.7022 165.189 52.7524 164.875 52.7524C164.44 52.7524 164.058 52.6734 163.729 52.5167C163.4 52.3593 163.124 52.1426 162.9 51.8658C162.677 51.5897 162.508 51.2652 162.395 50.8917C162.283 50.5188 162.227 50.1159 162.227 49.6842V49.4454C162.227 49.0137 162.283 48.6114 162.395 48.2379C162.508 47.8657 162.675 47.5411 162.898 47.2668C163.119 46.9925 163.396 46.7752 163.726 46.616C164.057 46.4568 164.438 46.3772 164.871 46.3772C165.204 46.3772 165.512 46.428 165.797 46.5308C166.082 46.6325 166.33 46.7782 166.543 46.968C166.755 47.1578 166.924 47.3881 167.05 47.6581C167.176 47.9287 167.247 48.2312 167.262 48.5637H166.603C166.588 48.3139 166.533 48.091 166.439 47.8938C166.346 47.6967 166.221 47.5277 166.066 47.3881C165.912 47.2478 165.732 47.1413 165.527 47.0672C165.323 46.9937 165.104 46.9564 164.87 46.9564C164.515 46.9564 164.213 47.0244 163.967 47.1609C163.721 47.2974 163.519 47.4805 163.362 47.712C163.205 47.9428 163.091 48.2079 163.02 48.5074C162.95 48.8062 162.914 49.1184 162.914 49.4442V49.683C162.914 50.0124 162.95 50.3277 163.02 50.629C163.091 50.9296 163.204 51.1954 163.358 51.4244C163.514 51.6534 163.716 51.8358 163.966 51.9724C164.217 52.1095 164.52 52.1781 164.875 52.1781Z" fill="#333333"/>
<path d="M173.442 47.0716H171.182V52.6387H170.494V47.0716H168.32V46.4924H173.442V47.0716Z" fill="#333333"/>
<path d="M174.992 52.6377V46.4915H177.269C177.647 46.4915 177.987 46.5251 178.286 46.5906C178.586 46.6568 178.843 46.7572 179.055 46.8919C179.267 47.0266 179.429 47.1968 179.543 47.4032C179.655 47.6095 179.711 47.8526 179.711 48.1324C179.711 48.4398 179.618 48.7129 179.43 48.9535C179.243 49.1948 178.97 49.3693 178.61 49.4789C178.817 49.5168 179.004 49.5811 179.169 49.6718C179.336 49.7624 179.477 49.8726 179.594 50.0012C179.711 50.1298 179.8 50.2736 179.864 50.4328C179.927 50.592 179.958 50.7586 179.958 50.9325C179.958 51.2166 179.904 51.4646 179.795 51.6764C179.685 51.8889 179.531 52.0658 179.33 52.2079C179.13 52.3493 178.889 52.4565 178.607 52.5288C178.327 52.6004 178.012 52.6365 177.664 52.6365H174.992V52.6377ZM175.674 49.2413H177.412C177.947 49.2333 178.351 49.1384 178.622 48.9541C178.893 48.7704 179.029 48.5029 179.029 48.1502C179.029 47.7755 178.881 47.5018 178.584 47.3291C178.288 47.157 177.85 47.0707 177.268 47.0707H175.674V49.2413ZM175.674 49.8089V52.0695H177.664C178.181 52.0695 178.578 51.9709 178.857 51.7744C179.136 51.5778 179.276 51.2937 179.276 50.9221C179.276 50.581 179.136 50.3104 178.857 50.1095C178.578 49.9093 178.181 49.8089 177.664 49.8089H175.674Z" fill="#333333"/>
<path d="M181.454 49.4739C181.454 49.0276 181.519 48.6149 181.652 48.2365C181.783 47.8574 181.97 47.5311 182.21 47.2562C182.451 46.9812 182.741 46.7663 183.082 46.6108C183.423 46.4559 183.801 46.3781 184.218 46.3781C184.642 46.3781 185.026 46.4559 185.367 46.6108C185.709 46.7663 186 46.9812 186.242 47.2562C186.483 47.5305 186.668 47.8568 186.798 48.2365C186.928 48.6149 186.993 49.0276 186.993 49.4739V49.6619C186.993 50.1083 186.928 50.5216 186.798 50.9C186.668 51.2784 186.482 51.6053 186.242 51.8803C186 52.1546 185.71 52.3689 185.37 52.522C185.03 52.6756 184.65 52.7522 184.229 52.7522C183.808 52.7522 183.428 52.6756 183.087 52.522C182.747 52.3689 182.456 52.1546 182.213 51.8803C181.969 51.606 181.783 51.279 181.651 50.9C181.519 50.5216 181.453 50.1083 181.453 49.6619L181.454 49.4739ZM182.142 49.6613C182.142 49.9987 182.188 50.3195 182.28 50.6238C182.371 50.9288 182.505 51.1963 182.681 51.4253C182.856 51.6543 183.075 51.8368 183.335 51.9733C183.595 52.1099 183.893 52.1778 184.229 52.1778C184.566 52.1778 184.863 52.1099 185.121 51.9733C185.379 51.8368 185.596 51.6543 185.772 51.4253C185.948 51.1963 186.082 50.9288 186.173 50.6238C186.265 50.3195 186.311 49.9987 186.311 49.6613V49.4733C186.311 49.1445 186.266 48.8267 186.173 48.5218C186.082 48.2175 185.948 47.9487 185.772 47.7178C185.596 47.487 185.377 47.3021 185.115 47.1643C184.853 47.0259 184.554 46.9568 184.218 46.9568C183.885 46.9568 183.59 47.0259 183.331 47.1643C183.073 47.3027 182.856 47.487 182.68 47.7178C182.505 47.9487 182.37 48.2169 182.279 48.5218C182.188 48.8267 182.141 49.1445 182.141 49.4733V49.6613H182.142Z" fill="#333333"/>
</g>
<defs>
<clipPath id="clip0_3855_42128">
<rect width="187" height="55" fill="white"/>
</clipPath>
</defs>
</svg>
