<svg width="400" height="400" viewBox="0 0 400 400" fill="none" xmlns="http://www.w3.org/2000/svg">
<path d="M90.1273 208.66H92.9306V219.294H93.0753L100.411 208.66H102.948V224.261H100.122V213.634H99.9922L92.6335 224.261H90.1273V208.66ZM105.258 221.054H107.993C108.018 221.491 108.214 221.828 108.579 222.067C108.945 222.306 109.42 222.425 110.004 222.425C110.598 222.425 111.098 222.296 111.504 222.037C111.916 221.773 112.121 221.374 112.121 220.841C112.121 220.526 112.043 220.249 111.885 220.01C111.728 219.767 111.507 219.579 111.222 219.447C110.938 219.315 110.603 219.249 110.217 219.249H108.427V217.291H110.217C110.791 217.291 111.225 217.159 111.52 216.895C111.819 216.631 111.969 216.298 111.969 215.897C111.969 215.465 111.812 215.115 111.497 214.846C111.187 214.576 110.758 214.442 110.209 214.442C109.661 214.442 109.204 214.566 108.838 214.815C108.478 215.064 108.29 215.384 108.274 215.775H105.555C105.565 215.094 105.768 214.503 106.164 214C106.566 213.497 107.104 213.106 107.779 212.827C108.46 212.548 109.227 212.408 110.08 212.408C110.994 212.408 111.784 212.545 112.449 212.819C113.114 213.094 113.627 213.477 113.988 213.97C114.348 214.457 114.529 215.031 114.529 215.691C114.529 216.326 114.331 216.852 113.934 217.268C113.538 217.679 113.005 217.974 112.335 218.152V218.274C112.797 218.299 113.213 218.431 113.584 218.67C113.955 218.903 114.249 219.221 114.468 219.622C114.686 220.023 114.795 220.488 114.795 221.016C114.795 221.732 114.59 222.352 114.178 222.875C113.767 223.393 113.201 223.791 112.479 224.071C111.763 224.35 110.943 224.49 110.019 224.49C109.12 224.49 108.315 224.355 107.604 224.086C106.898 223.812 106.337 223.418 105.921 222.905C105.504 222.392 105.283 221.775 105.258 221.054ZM122.07 224.49C120.927 224.49 119.937 224.238 119.099 223.735C118.261 223.233 117.611 222.529 117.149 221.625C116.692 220.721 116.463 219.665 116.463 218.456C116.463 217.248 116.692 216.189 117.149 215.28C117.611 214.371 118.261 213.665 119.099 213.162C119.937 212.659 120.927 212.408 122.07 212.408C123.213 212.408 124.203 212.659 125.041 213.162C125.879 213.665 126.526 214.371 126.983 215.28C127.446 216.189 127.677 217.248 127.677 218.456C127.677 219.665 127.446 220.721 126.983 221.625C126.526 222.529 125.879 223.233 125.041 223.735C124.203 224.238 123.213 224.49 122.07 224.49ZM122.085 222.28C122.705 222.28 123.223 222.11 123.639 221.77C124.056 221.425 124.366 220.963 124.569 220.384C124.777 219.805 124.881 219.16 124.881 218.449C124.881 217.733 124.777 217.085 124.569 216.506C124.366 215.922 124.056 215.458 123.639 215.112C123.223 214.767 122.705 214.594 122.085 214.594C121.45 214.594 120.922 214.767 120.501 215.112C120.084 215.458 119.772 215.922 119.564 216.506C119.361 217.085 119.259 217.733 119.259 218.449C119.259 219.16 119.361 219.805 119.564 220.384C119.772 220.963 120.084 221.425 120.501 221.77C120.922 222.11 121.45 222.28 122.085 222.28ZM139.395 208.233L140.354 210.016C140.014 210.311 139.633 210.524 139.212 210.656C138.79 210.788 138.295 210.874 137.726 210.915C137.163 210.95 136.492 210.976 135.715 210.991C134.842 211.011 134.128 211.176 133.575 211.486C133.021 211.796 132.597 212.266 132.302 212.895C132.008 213.52 131.815 214.317 131.724 215.287H131.853C132.219 214.571 132.732 214.025 133.392 213.65C134.052 213.274 134.826 213.086 135.715 213.086C136.685 213.086 137.541 213.304 138.282 213.741C139.029 214.173 139.61 214.8 140.027 215.623C140.448 216.445 140.659 217.441 140.659 218.609C140.659 219.812 140.433 220.856 139.981 221.74C139.529 222.618 138.887 223.296 138.054 223.774C137.226 224.251 136.243 224.49 135.106 224.49C133.973 224.49 132.988 224.243 132.15 223.751C131.317 223.253 130.672 222.519 130.215 221.549C129.763 220.574 129.537 219.373 129.537 217.946V216.895C129.537 214.142 130.05 212.088 131.076 210.732C132.102 209.376 133.623 208.685 135.639 208.66C136.238 208.65 136.774 208.647 137.246 208.652C137.724 208.658 138.14 208.635 138.496 208.584C138.851 208.533 139.151 208.416 139.395 208.233ZM135.121 222.28C135.685 222.28 136.172 222.136 136.584 221.846C136.995 221.552 137.31 221.135 137.528 220.597C137.752 220.059 137.863 219.421 137.863 218.685C137.863 217.959 137.752 217.342 137.528 216.834C137.305 216.321 136.987 215.93 136.576 215.661C136.165 215.392 135.675 215.257 135.106 215.257C134.679 215.257 134.296 215.333 133.956 215.485C133.615 215.638 133.326 215.861 133.087 216.156C132.848 216.45 132.666 216.808 132.539 217.23C132.412 217.651 132.343 218.136 132.333 218.685C132.333 219.787 132.582 220.663 133.079 221.313C133.577 221.958 134.258 222.28 135.121 222.28ZM143.005 228.649V212.56H145.717V214.495H145.877C146.019 214.211 146.22 213.909 146.479 213.589C146.738 213.264 147.088 212.987 147.53 212.758C147.972 212.525 148.536 212.408 149.221 212.408C150.125 212.408 150.94 212.639 151.667 213.101C152.398 213.558 152.977 214.236 153.403 215.135C153.835 216.029 154.051 217.126 154.051 218.426C154.051 219.711 153.84 220.803 153.419 221.702C152.997 222.6 152.423 223.286 151.697 223.758C150.971 224.231 150.148 224.467 149.229 224.467C148.559 224.467 148.002 224.355 147.561 224.132C147.119 223.908 146.763 223.639 146.494 223.324C146.23 223.004 146.024 222.702 145.877 222.418H145.763V228.649H143.005ZM145.71 218.411C145.71 219.167 145.816 219.83 146.03 220.399C146.248 220.968 146.56 221.412 146.966 221.732C147.378 222.047 147.876 222.204 148.46 222.204C149.069 222.204 149.579 222.042 149.991 221.717C150.402 221.387 150.712 220.937 150.92 220.368C151.133 219.795 151.24 219.142 151.24 218.411C151.24 217.684 151.136 217.039 150.928 216.476C150.719 215.912 150.41 215.47 149.998 215.15C149.587 214.83 149.074 214.67 148.46 214.67C147.87 214.67 147.37 214.825 146.959 215.135C146.548 215.445 146.235 215.879 146.022 216.438C145.814 216.996 145.71 217.654 145.71 218.411ZM159.779 224.497C159.038 224.497 158.37 224.365 157.776 224.101C157.187 223.832 156.72 223.436 156.374 222.913C156.034 222.39 155.864 221.745 155.864 220.978C155.864 220.318 155.986 219.772 156.23 219.34C156.473 218.908 156.806 218.563 157.227 218.304C157.649 218.045 158.124 217.85 158.652 217.717C159.185 217.58 159.736 217.481 160.305 217.42C160.991 217.349 161.547 217.286 161.973 217.23C162.4 217.169 162.71 217.078 162.903 216.956C163.101 216.829 163.2 216.633 163.2 216.369V216.323C163.2 215.75 163.03 215.305 162.689 214.99C162.349 214.675 161.859 214.518 161.219 214.518C160.544 214.518 160.008 214.665 159.612 214.96C159.221 215.254 158.957 215.602 158.82 216.003L156.245 215.638C156.448 214.927 156.783 214.333 157.25 213.855C157.718 213.373 158.289 213.012 158.964 212.774C159.64 212.53 160.386 212.408 161.204 212.408C161.768 212.408 162.329 212.474 162.887 212.606C163.446 212.738 163.956 212.956 164.419 213.261C164.881 213.561 165.251 213.97 165.531 214.488C165.815 215.006 165.957 215.653 165.957 216.43V224.261H163.306V222.654H163.215C163.047 222.979 162.811 223.283 162.507 223.568C162.207 223.847 161.829 224.073 161.372 224.246C160.92 224.413 160.389 224.497 159.779 224.497ZM160.495 222.471C161.049 222.471 161.529 222.362 161.935 222.143C162.341 221.92 162.654 221.625 162.872 221.26C163.096 220.894 163.207 220.495 163.207 220.064V218.685C163.121 218.756 162.974 218.822 162.766 218.883C162.562 218.944 162.334 218.997 162.08 219.043C161.826 219.089 161.575 219.129 161.326 219.165C161.077 219.2 160.861 219.231 160.678 219.256C160.267 219.312 159.899 219.404 159.574 219.53C159.249 219.657 158.992 219.835 158.804 220.064C158.616 220.287 158.522 220.577 158.522 220.932C158.522 221.44 158.708 221.823 159.079 222.082C159.449 222.341 159.922 222.471 160.495 222.471ZM167.968 224.261L172.288 218.22L168.006 212.56H171.191L174.52 217.276H175.175V212.56H177.932V217.276H178.572L181.901 212.56H185.085L180.827 218.22L185.123 224.261H181.871L178.542 219.538H177.932V224.261H175.175V219.538H174.565L171.221 224.261H167.968ZM191.926 224.49C190.753 224.49 189.74 224.246 188.887 223.758C188.038 223.266 187.386 222.57 186.929 221.671C186.472 220.767 186.243 219.703 186.243 218.479C186.243 217.276 186.472 216.219 186.929 215.31C187.391 214.396 188.036 213.685 188.864 213.177C189.691 212.664 190.664 212.408 191.781 212.408C192.502 212.408 193.183 212.525 193.823 212.758C194.468 212.987 195.037 213.342 195.529 213.825C196.027 214.307 196.418 214.922 196.702 215.668C196.987 216.41 197.129 217.293 197.129 218.319V219.165H187.538V217.306H194.485C194.48 216.778 194.366 216.308 194.143 215.897C193.919 215.48 193.607 215.153 193.206 214.914C192.81 214.675 192.347 214.556 191.819 214.556C191.256 214.556 190.76 214.693 190.334 214.967C189.907 215.237 189.575 215.592 189.336 216.034C189.102 216.471 188.983 216.951 188.978 217.474V219.096C188.978 219.777 189.102 220.361 189.351 220.848C189.6 221.331 189.948 221.702 190.395 221.961C190.842 222.214 191.365 222.341 191.964 222.341C192.365 222.341 192.728 222.286 193.053 222.174C193.378 222.057 193.66 221.887 193.899 221.663C194.138 221.44 194.318 221.163 194.44 220.833L197.015 221.123C196.852 221.803 196.542 222.397 196.085 222.905C195.633 223.408 195.054 223.799 194.348 224.078C193.642 224.352 192.835 224.49 191.926 224.49ZM207.498 217.268V219.53H201.267V217.268H207.498ZM202.12 212.56V224.261H199.462V212.56H202.12ZM209.304 212.56V224.261H206.653V212.56H209.304ZM214.752 220.528L219.437 212.56H222.271V224.261H219.605V216.285L214.935 224.261H212.094V212.56H214.752V220.528ZM230.283 224.49C229.11 224.49 228.097 224.246 227.243 223.758C226.395 223.266 225.743 222.57 225.286 221.671C224.829 220.767 224.6 219.703 224.6 218.479C224.6 217.276 224.829 216.219 225.286 215.31C225.748 214.396 226.393 213.685 227.221 213.177C228.048 212.664 229.021 212.408 230.138 212.408C230.859 212.408 231.54 212.525 232.18 212.758C232.825 212.987 233.393 213.342 233.886 213.825C234.384 214.307 234.775 214.922 235.059 215.668C235.343 216.41 235.486 217.293 235.486 218.319V219.165H225.895V217.306H232.842C232.837 216.778 232.723 216.308 232.5 215.897C232.276 215.48 231.964 215.153 231.563 214.914C231.166 214.675 230.704 214.556 230.176 214.556C229.612 214.556 229.117 214.693 228.691 214.967C228.264 215.237 227.931 215.592 227.693 216.034C227.459 216.471 227.34 216.951 227.335 217.474V219.096C227.335 219.777 227.459 220.361 227.708 220.848C227.957 221.331 228.305 221.702 228.752 221.961C229.199 222.214 229.722 222.341 230.321 222.341C230.722 222.341 231.085 222.286 231.41 222.174C231.735 222.057 232.017 221.887 232.256 221.663C232.494 221.44 232.675 221.163 232.797 220.833L235.371 221.123C235.209 221.803 234.899 222.397 234.442 222.905C233.99 223.408 233.411 223.799 232.705 224.078C231.999 224.352 231.192 224.49 230.283 224.49ZM248.243 224.49C247.075 224.49 246.072 224.233 245.234 223.72C244.402 223.207 243.759 222.499 243.307 221.595C242.86 220.686 242.637 219.64 242.637 218.456C242.637 217.268 242.865 216.219 243.322 215.31C243.779 214.396 244.424 213.685 245.257 213.177C246.095 212.664 247.085 212.408 248.228 212.408C249.178 212.408 250.018 212.583 250.75 212.934C251.486 213.279 252.072 213.769 252.509 214.404C252.946 215.034 253.195 215.77 253.256 216.613H250.62C250.513 216.049 250.259 215.579 249.858 215.204C249.462 214.823 248.931 214.632 248.266 214.632C247.702 214.632 247.207 214.785 246.781 215.089C246.354 215.389 246.022 215.821 245.783 216.384C245.549 216.948 245.432 217.624 245.432 218.411C245.432 219.208 245.549 219.894 245.783 220.467C246.016 221.036 246.344 221.476 246.766 221.785C247.192 222.09 247.692 222.242 248.266 222.242C248.672 222.242 249.036 222.166 249.356 222.014C249.681 221.856 249.952 221.63 250.171 221.336C250.389 221.041 250.539 220.683 250.62 220.262H253.256C253.19 221.09 252.946 221.823 252.524 222.463C252.103 223.098 251.529 223.596 250.803 223.956C250.077 224.312 249.223 224.49 248.243 224.49ZM255.52 224.261V212.56H258.278V217.283H259.283L262.803 212.56H266.124L261.789 218.304L266.17 224.261H262.833L259.626 219.85H258.278V224.261H255.52ZM272.355 224.49C271.213 224.49 270.222 224.238 269.384 223.735C268.546 223.233 267.896 222.529 267.434 221.625C266.977 220.721 266.749 219.665 266.749 218.456C266.749 217.248 266.977 216.189 267.434 215.28C267.896 214.371 268.546 213.665 269.384 213.162C270.222 212.659 271.213 212.408 272.355 212.408C273.498 212.408 274.488 212.659 275.326 213.162C276.164 213.665 276.811 214.371 277.269 215.28C277.731 216.189 277.962 217.248 277.962 218.456C277.962 219.665 277.731 220.721 277.269 221.625C276.811 222.529 276.164 223.233 275.326 223.735C274.488 224.238 273.498 224.49 272.355 224.49ZM272.37 222.28C272.99 222.28 273.508 222.11 273.924 221.77C274.341 221.425 274.651 220.963 274.854 220.384C275.062 219.805 275.166 219.16 275.166 218.449C275.166 217.733 275.062 217.085 274.854 216.506C274.651 215.922 274.341 215.458 273.924 215.112C273.508 214.767 272.99 214.594 272.37 214.594C271.736 214.594 271.207 214.767 270.786 215.112C270.369 215.458 270.057 215.922 269.849 216.506C269.646 217.085 269.544 217.733 269.544 218.449C269.544 219.16 269.646 219.805 269.849 220.384C270.057 220.963 270.369 221.425 270.786 221.77C271.207 222.11 271.736 222.28 272.37 222.28ZM280.302 228.649V212.56H283.014V214.495H283.174C283.316 214.211 283.517 213.909 283.776 213.589C284.035 213.264 284.385 212.987 284.827 212.758C285.269 212.525 285.833 212.408 286.518 212.408C287.422 212.408 288.237 212.639 288.964 213.101C289.695 213.558 290.274 214.236 290.7 215.135C291.132 216.029 291.348 217.126 291.348 218.426C291.348 219.711 291.137 220.803 290.716 221.702C290.294 222.6 289.72 223.286 288.994 223.758C288.268 224.231 287.445 224.467 286.526 224.467C285.856 224.467 285.299 224.355 284.858 224.132C284.416 223.908 284.06 223.639 283.791 223.324C283.527 223.004 283.321 222.702 283.174 222.418H283.06V228.649H280.302ZM283.007 218.411C283.007 219.167 283.113 219.83 283.327 220.399C283.545 220.968 283.857 221.412 284.263 221.732C284.675 222.047 285.173 222.204 285.757 222.204C286.366 222.204 286.876 222.042 287.288 221.717C287.699 221.387 288.009 220.937 288.217 220.368C288.43 219.795 288.537 219.142 288.537 218.411C288.537 217.684 288.433 217.039 288.225 216.476C288.016 215.912 287.707 215.47 287.295 215.15C286.884 214.83 286.371 214.67 285.757 214.67C285.167 214.67 284.667 214.825 284.256 215.135C283.845 215.445 283.532 215.879 283.319 216.438C283.111 216.996 283.007 217.654 283.007 218.411ZM298.813 224.49C297.671 224.49 296.68 224.238 295.842 223.735C295.004 223.233 294.354 222.529 293.892 221.625C293.435 220.721 293.207 219.665 293.207 218.456C293.207 217.248 293.435 216.189 293.892 215.28C294.354 214.371 295.004 213.665 295.842 213.162C296.68 212.659 297.671 212.408 298.813 212.408C299.956 212.408 300.946 212.659 301.784 213.162C302.622 213.665 303.27 214.371 303.727 215.28C304.189 216.189 304.42 217.248 304.42 218.456C304.42 219.665 304.189 220.721 303.727 221.625C303.27 222.529 302.622 223.233 301.784 223.735C300.946 224.238 299.956 224.49 298.813 224.49ZM298.828 222.28C299.448 222.28 299.966 222.11 300.382 221.77C300.799 221.425 301.109 220.963 301.312 220.384C301.52 219.805 301.624 219.16 301.624 218.449C301.624 217.733 301.52 217.085 301.312 216.506C301.109 215.922 300.799 215.458 300.382 215.112C299.966 214.767 299.448 214.594 298.828 214.594C298.194 214.594 297.666 214.767 297.244 215.112C296.828 215.458 296.515 215.922 296.307 216.506C296.104 217.085 296.002 217.733 296.002 218.449C296.002 219.16 296.104 219.805 296.307 220.384C296.515 220.963 296.828 221.425 297.244 221.77C297.666 222.11 298.194 222.28 298.828 222.28ZM148.431 250.261V238.56H158.311V250.261H155.653V240.823H151.067V250.261H148.431ZM166.251 250.49C165.108 250.49 164.118 250.238 163.28 249.735C162.442 249.233 161.792 248.529 161.33 247.625C160.873 246.721 160.644 245.665 160.644 244.456C160.644 243.248 160.873 242.189 161.33 241.28C161.792 240.371 162.442 239.665 163.28 239.162C164.118 238.659 165.108 238.408 166.251 238.408C167.393 238.408 168.384 238.659 169.222 239.162C170.059 239.665 170.707 240.371 171.164 241.28C171.626 242.189 171.857 243.248 171.857 244.456C171.857 245.665 171.626 246.721 171.164 247.625C170.707 248.529 170.059 249.233 169.222 249.735C168.384 250.238 167.393 250.49 166.251 250.49ZM166.266 248.28C166.885 248.28 167.403 248.11 167.82 247.77C168.236 247.425 168.546 246.963 168.749 246.384C168.957 245.805 169.062 245.16 169.062 244.449C169.062 243.733 168.957 243.085 168.749 242.506C168.546 241.922 168.236 241.458 167.82 241.112C167.403 240.767 166.885 240.594 166.266 240.594C165.631 240.594 165.103 240.767 164.681 241.112C164.265 241.458 163.953 241.922 163.744 242.506C163.541 243.085 163.44 243.733 163.44 244.449C163.44 245.16 163.541 245.805 163.744 246.384C163.953 246.963 164.265 247.425 164.681 247.77C165.103 248.11 165.631 248.28 166.266 248.28ZM181.115 250.261V240.8H178.616C177.981 240.8 177.494 240.947 177.153 241.242C176.813 241.536 176.646 241.902 176.651 242.339C176.646 242.775 176.806 243.136 177.131 243.42C177.456 243.705 177.92 243.847 178.525 243.847H181.983V245.858H178.525C177.59 245.858 176.783 245.711 176.102 245.416C175.422 245.122 174.899 244.705 174.533 244.167C174.167 243.629 173.984 242.999 173.984 242.278C173.984 241.526 174.17 240.874 174.541 240.32C174.916 239.761 175.45 239.33 176.14 239.025C176.836 238.715 177.661 238.56 178.616 238.56H183.697V250.261H181.115ZM173.558 250.261L176.826 244.258H179.545L176.27 250.261H173.558ZM186.474 250.261V238.56H191.387C192.773 238.56 193.868 238.837 194.67 239.391C195.478 239.944 195.881 240.716 195.881 241.706C195.881 242.362 195.653 242.897 195.196 243.314C194.744 243.725 194.127 244.002 193.345 244.144C193.959 244.195 194.498 244.35 194.96 244.609C195.427 244.868 195.793 245.208 196.057 245.63C196.321 246.051 196.453 246.536 196.453 247.084C196.453 247.729 196.283 248.291 195.942 248.768C195.607 249.24 195.117 249.608 194.472 249.873C193.832 250.132 193.055 250.261 192.141 250.261H186.474ZM189.056 248.09H192.141C192.649 248.09 193.048 247.971 193.337 247.732C193.627 247.488 193.771 247.158 193.771 246.742C193.771 246.259 193.627 245.881 193.337 245.607C193.048 245.327 192.649 245.188 192.141 245.188H189.056V248.09ZM189.056 243.405H191.44C191.816 243.405 192.139 243.352 192.408 243.245C192.677 243.133 192.883 242.979 193.025 242.78C193.167 242.577 193.238 242.336 193.238 242.057C193.238 241.656 193.073 241.341 192.743 241.112C192.418 240.884 191.966 240.769 191.387 240.769H189.056V243.405ZM201.387 246.528L206.072 238.56H208.906V250.261H206.24V242.285L201.57 250.261H198.729V238.56H201.387V246.528ZM210.427 240.823V238.56H220.666V240.823H216.88V250.261H214.213V240.823H210.427ZM227.483 250.49C226.315 250.49 225.312 250.233 224.474 249.72C223.641 249.207 222.999 248.499 222.547 247.595C222.1 246.686 221.877 245.64 221.877 244.456C221.877 243.268 222.105 242.219 222.562 241.31C223.019 240.396 223.664 239.685 224.497 239.177C225.335 238.664 226.325 238.408 227.468 238.408C228.418 238.408 229.258 238.583 229.99 238.934C230.726 239.279 231.312 239.769 231.749 240.404C232.186 241.034 232.435 241.77 232.496 242.613H229.86C229.753 242.049 229.499 241.579 229.098 241.204C228.702 240.823 228.171 240.632 227.506 240.632C226.942 240.632 226.447 240.785 226.021 241.089C225.594 241.389 225.262 241.821 225.023 242.384C224.789 242.948 224.672 243.624 224.672 244.411C224.672 245.208 224.789 245.894 225.023 246.467C225.256 247.036 225.584 247.476 226.005 247.785C226.432 248.09 226.932 248.242 227.506 248.242C227.912 248.242 228.276 248.166 228.596 248.014C228.921 247.856 229.192 247.63 229.411 247.336C229.629 247.041 229.779 246.683 229.86 246.262H232.496C232.43 247.09 232.186 247.823 231.764 248.463C231.343 249.098 230.769 249.596 230.043 249.956C229.317 250.312 228.463 250.49 227.483 250.49ZM241.677 250.261V240.8H239.178C238.544 240.8 238.056 240.947 237.716 241.242C237.375 241.536 237.208 241.902 237.213 242.339C237.208 242.775 237.368 243.136 237.693 243.42C238.018 243.705 238.483 243.847 239.087 243.847H242.545V245.858H239.087C238.152 245.858 237.345 245.711 236.665 245.416C235.984 245.122 235.461 244.705 235.095 244.167C234.73 243.629 234.547 242.999 234.547 242.278C234.547 241.526 234.732 240.874 235.103 240.32C235.479 239.761 236.012 239.33 236.703 239.025C237.398 238.715 238.224 238.56 239.178 238.56H244.259V250.261H241.677ZM234.12 250.261L237.388 244.258H240.108L236.832 250.261H234.12ZM250.411 234.66L250.159 245.675H247.706L247.463 234.66H250.411ZM248.933 250.429C248.471 250.429 248.075 250.266 247.744 249.941C247.419 249.616 247.257 249.22 247.257 248.753C247.257 248.296 247.419 247.905 247.744 247.58C248.075 247.255 248.471 247.092 248.933 247.092C249.385 247.092 249.776 247.255 250.106 247.58C250.441 247.905 250.609 248.296 250.609 248.753C250.609 249.063 250.53 249.344 250.373 249.598C250.22 249.852 250.017 250.055 249.763 250.208C249.514 250.355 249.237 250.429 248.933 250.429Z" fill="#151517" fill-opacity="0.68"/>
<path d="M117.227 268.64V279.373H115.928V269.793H110.519V279.373H109.22V268.64H117.227ZM122.952 279.541C122.225 279.541 121.587 279.368 121.039 279.022C120.494 278.676 120.068 278.193 119.76 277.571C119.456 276.949 119.304 276.222 119.304 275.39C119.304 274.552 119.456 273.82 119.76 273.195C120.068 272.569 120.494 272.084 121.039 271.738C121.587 271.392 122.225 271.219 122.952 271.219C123.678 271.219 124.314 271.392 124.859 271.738C125.408 272.084 125.834 272.569 126.138 273.195C126.446 273.82 126.599 274.552 126.599 275.39C126.599 276.222 126.446 276.949 126.138 277.571C125.834 278.193 125.408 278.676 124.859 279.022C124.314 279.368 123.678 279.541 122.952 279.541ZM122.952 278.43C123.504 278.43 123.958 278.289 124.314 278.006C124.671 277.723 124.935 277.351 125.106 276.889C125.277 276.428 125.363 275.929 125.363 275.39C125.363 274.852 125.277 274.351 125.106 273.886C124.935 273.422 124.671 273.046 124.314 272.76C123.958 272.473 123.504 272.33 122.952 272.33C122.4 272.33 121.946 272.473 121.589 272.76C121.233 273.046 120.969 273.422 120.798 273.886C120.627 274.351 120.541 274.852 120.541 275.39C120.541 275.929 120.627 276.428 120.798 276.889C120.969 277.351 121.233 277.723 121.589 278.006C121.946 278.289 122.4 278.43 122.952 278.43ZM128.487 279.373V271.324H129.724V274.824H130.542L133.435 271.324H135.028L131.779 275.202L135.07 279.373H133.477L130.835 275.977H129.724V279.373H128.487ZM138.783 279.562C138.273 279.562 137.81 279.466 137.394 279.274C136.978 279.078 136.648 278.797 136.404 278.43C136.159 278.06 136.037 277.613 136.037 277.088C136.037 276.627 136.128 276.253 136.309 275.967C136.491 275.677 136.734 275.45 137.038 275.286C137.342 275.121 137.677 274.999 138.044 274.919C138.414 274.835 138.786 274.769 139.16 274.72C139.649 274.657 140.046 274.61 140.35 274.578C140.657 274.543 140.881 274.486 141.021 274.405C141.164 274.325 141.236 274.185 141.236 273.986V273.944C141.236 273.427 141.094 273.025 140.811 272.739C140.532 272.452 140.107 272.309 139.538 272.309C138.947 272.309 138.484 272.438 138.149 272.697C137.813 272.955 137.578 273.231 137.441 273.525L136.267 273.105C136.477 272.616 136.756 272.236 137.106 271.963C137.459 271.687 137.843 271.495 138.259 271.386C138.678 271.275 139.09 271.219 139.496 271.219C139.754 271.219 140.051 271.25 140.387 271.313C140.725 271.373 141.052 271.497 141.367 271.685C141.685 271.874 141.948 272.159 142.158 272.539C142.368 272.92 142.472 273.43 142.472 274.07V279.373H141.236V278.283H141.173C141.089 278.458 140.949 278.645 140.753 278.844C140.558 279.043 140.297 279.213 139.973 279.353C139.648 279.492 139.251 279.562 138.783 279.562ZM138.972 278.451C139.461 278.451 139.873 278.355 140.208 278.163C140.547 277.971 140.802 277.723 140.974 277.419C141.148 277.115 141.236 276.795 141.236 276.46V275.328C141.183 275.39 141.068 275.448 140.89 275.501C140.715 275.549 140.512 275.593 140.282 275.632C140.055 275.666 139.833 275.698 139.616 275.726C139.403 275.75 139.23 275.771 139.097 275.789C138.776 275.831 138.475 275.899 138.196 275.993C137.92 276.084 137.696 276.222 137.525 276.407C137.357 276.589 137.274 276.837 137.274 277.151C137.274 277.581 137.433 277.906 137.75 278.126C138.072 278.343 138.479 278.451 138.972 278.451ZM148.881 279.373V271.324H152.172C153.038 271.324 153.727 271.519 154.237 271.911C154.747 272.302 155.002 272.819 155.002 273.462C155.002 273.951 154.857 274.33 154.567 274.599C154.277 274.865 153.905 275.045 153.451 275.139C153.748 275.181 154.036 275.286 154.315 275.453C154.598 275.621 154.832 275.852 155.018 276.145C155.203 276.435 155.295 276.792 155.295 277.214C155.295 277.627 155.191 277.995 154.981 278.32C154.771 278.645 154.471 278.902 154.079 279.09C153.688 279.279 153.22 279.373 152.675 279.373H148.881ZM150.055 278.241H152.675C153.101 278.241 153.435 278.14 153.676 277.937C153.917 277.735 154.038 277.459 154.038 277.109C154.038 276.694 153.917 276.367 153.676 276.129C153.435 275.888 153.101 275.768 152.675 275.768H150.055V278.241ZM150.055 274.699H152.172C152.504 274.699 152.788 274.653 153.026 274.562C153.264 274.468 153.445 274.335 153.571 274.164C153.7 273.989 153.765 273.783 153.765 273.546C153.765 273.207 153.624 272.941 153.341 272.749C153.058 272.553 152.668 272.456 152.172 272.456H150.055V274.699ZM158.237 274.237H160.543C161.486 274.237 162.208 274.477 162.707 274.955C163.207 275.434 163.457 276.04 163.457 276.774C163.457 277.256 163.345 277.695 163.121 278.089C162.898 278.481 162.569 278.793 162.136 279.028C161.703 279.258 161.172 279.373 160.543 279.373H157.168V271.324H158.404V278.22H160.543C161.032 278.22 161.434 278.091 161.748 277.833C162.063 277.574 162.22 277.242 162.22 276.837C162.22 276.411 162.063 276.063 161.748 275.794C161.434 275.525 161.032 275.39 160.543 275.39H158.237V274.237ZM164.735 279.373V271.324H165.972V279.373H164.735ZM176.789 277.696L179.598 271.324H180.772L177.292 279.373H176.286L172.869 271.324H174.022L176.789 277.696ZM173.624 271.324V279.373H172.387V271.324H173.624ZM179.955 279.373V271.324H181.191V279.373H179.955ZM186.726 279.541C185.999 279.541 185.361 279.368 184.813 279.022C184.268 278.676 183.842 278.193 183.534 277.571C183.23 276.949 183.078 276.222 183.078 275.39C183.078 274.552 183.23 273.82 183.534 273.195C183.842 272.569 184.268 272.084 184.813 271.738C185.361 271.392 185.999 271.219 186.726 271.219C187.452 271.219 188.088 271.392 188.633 271.738C189.182 272.084 189.608 272.569 189.912 273.195C190.22 273.82 190.373 274.552 190.373 275.39C190.373 276.222 190.22 276.949 189.912 277.571C189.608 278.193 189.182 278.676 188.633 279.022C188.088 279.368 187.452 279.541 186.726 279.541ZM186.726 278.43C187.278 278.43 187.732 278.289 188.088 278.006C188.445 277.723 188.708 277.351 188.88 276.889C189.051 276.428 189.136 275.929 189.136 275.39C189.136 274.852 189.051 274.351 188.88 273.886C188.708 273.422 188.445 273.046 188.088 272.76C187.732 272.473 187.278 272.33 186.726 272.33C186.174 272.33 185.719 272.473 185.363 272.76C185.007 273.046 184.743 273.422 184.572 273.886C184.401 274.351 184.315 274.852 184.315 275.39C184.315 275.929 184.401 276.428 184.572 276.889C184.743 277.351 185.007 277.723 185.363 278.006C185.719 278.289 186.174 278.43 186.726 278.43ZM191.427 279.373L194.697 275.286L191.469 271.324H192.936L195.619 274.762H196.29V271.324H197.527V274.762H198.177L200.86 271.324H202.328L199.12 275.286L202.369 279.373H200.881L198.156 275.915H197.527V279.373H196.29V275.915H195.661L192.915 279.373H191.427ZM207.181 279.541C206.405 279.541 205.736 279.37 205.173 279.028C204.614 278.682 204.183 278.2 203.879 277.581C203.578 276.959 203.428 276.236 203.428 275.411C203.428 274.587 203.578 273.86 203.879 273.231C204.183 272.599 204.606 272.106 205.147 271.753C205.692 271.397 206.328 271.219 207.055 271.219C207.474 271.219 207.888 271.289 208.297 271.428C208.706 271.568 209.078 271.795 209.413 272.11C209.749 272.421 210.016 272.833 210.215 273.347C210.414 273.86 210.514 274.493 210.514 275.244V275.768H204.309V274.699H209.256C209.256 274.244 209.165 273.839 208.983 273.483C208.805 273.126 208.55 272.845 208.218 272.639C207.89 272.433 207.502 272.33 207.055 272.33C206.562 272.33 206.136 272.452 205.776 272.697C205.42 272.938 205.145 273.252 204.953 273.64C204.761 274.028 204.665 274.444 204.665 274.887V275.6C204.665 276.208 204.77 276.723 204.979 277.146C205.193 277.565 205.488 277.885 205.865 278.105C206.242 278.322 206.681 278.43 207.181 278.43C207.505 278.43 207.799 278.385 208.061 278.294C208.327 278.2 208.555 278.06 208.748 277.875C208.94 277.686 209.088 277.452 209.193 277.172L210.388 277.508C210.262 277.913 210.051 278.269 209.754 278.577C209.457 278.881 209.09 279.118 208.653 279.29C208.216 279.457 207.726 279.541 207.181 279.541ZM211.646 272.477V271.324H218.186V272.477H215.545V279.373H214.308V272.477H211.646ZM222.947 279.541C222.172 279.541 221.503 279.37 220.94 279.028C220.381 278.682 219.95 278.2 219.646 277.581C219.345 276.959 219.195 276.236 219.195 275.411C219.195 274.587 219.345 273.86 219.646 273.231C219.95 272.599 220.373 272.106 220.914 271.753C221.459 271.397 222.095 271.219 222.822 271.219C223.241 271.219 223.655 271.289 224.064 271.428C224.473 271.568 224.845 271.795 225.18 272.11C225.515 272.421 225.783 272.833 225.982 273.347C226.181 273.86 226.281 274.493 226.281 275.244V275.768H220.076V274.699H225.023C225.023 274.244 224.932 273.839 224.75 273.483C224.572 273.126 224.317 272.845 223.985 272.639C223.657 272.433 223.269 272.33 222.822 272.33C222.329 272.33 221.903 272.452 221.543 272.697C221.187 272.938 220.912 273.252 220.72 273.64C220.528 274.028 220.432 274.444 220.432 274.887V275.6C220.432 276.208 220.537 276.723 220.746 277.146C220.959 277.565 221.255 277.885 221.632 278.105C222.009 278.322 222.448 278.43 222.947 278.43C223.272 278.43 223.566 278.385 223.828 278.294C224.093 278.2 224.322 278.06 224.514 277.875C224.707 277.686 224.855 277.452 224.96 277.172L226.155 277.508C226.029 277.913 225.818 278.269 225.521 278.577C225.224 278.881 224.857 279.118 224.42 279.29C223.983 279.457 223.493 279.541 222.947 279.541ZM233.55 277.55L237.428 271.324H238.853V279.373H237.616V273.147L233.759 279.373H232.313V271.324H233.55V277.55ZM240.616 277.319H241.936C241.964 277.682 242.128 277.958 242.429 278.147C242.733 278.336 243.128 278.43 243.613 278.43C244.109 278.43 244.534 278.329 244.887 278.126C245.24 277.92 245.416 277.588 245.416 277.13C245.416 276.861 245.35 276.627 245.217 276.428C245.084 276.226 244.897 276.068 244.656 275.956C244.415 275.845 244.13 275.789 243.802 275.789H242.418V274.678H243.802C244.295 274.678 244.658 274.566 244.892 274.342C245.13 274.119 245.248 273.839 245.248 273.504C245.248 273.144 245.121 272.856 244.866 272.639C244.611 272.419 244.249 272.309 243.781 272.309C243.309 272.309 242.916 272.415 242.602 272.629C242.287 272.838 242.121 273.109 242.104 273.441H240.804C240.818 273.008 240.951 272.625 241.202 272.293C241.454 271.958 241.796 271.696 242.23 271.507C242.663 271.315 243.159 271.219 243.718 271.219C244.284 271.219 244.775 271.318 245.191 271.518C245.61 271.713 245.933 271.98 246.16 272.319C246.391 272.655 246.506 273.036 246.506 273.462C246.506 273.916 246.379 274.283 246.124 274.562C245.869 274.842 245.549 275.041 245.165 275.16V275.244C245.469 275.265 245.732 275.363 245.956 275.537C246.183 275.708 246.359 275.934 246.485 276.213C246.611 276.489 246.674 276.795 246.674 277.13C246.674 277.62 246.543 278.046 246.281 278.409C246.019 278.769 245.659 279.049 245.201 279.248C244.744 279.443 244.221 279.541 243.634 279.541C243.065 279.541 242.555 279.449 242.104 279.263C241.653 279.075 241.295 278.814 241.03 278.483C240.768 278.147 240.63 277.759 240.616 277.319ZM249.208 282.392C248.998 282.392 248.811 282.375 248.647 282.34C248.483 282.308 248.369 282.277 248.306 282.245L248.621 281.155C248.921 281.232 249.187 281.26 249.417 281.239C249.648 281.218 249.852 281.115 250.031 280.93C250.212 280.748 250.378 280.453 250.529 280.044L250.759 279.415L247.782 271.324H249.124L251.346 277.738H251.43L253.652 271.324H254.994L251.577 280.547C251.423 280.963 251.233 281.307 251.005 281.58C250.778 281.856 250.515 282.06 250.214 282.193C249.917 282.326 249.582 282.392 249.208 282.392ZM262.586 271.324V279.373H261.349V271.324H262.586ZM262.104 275.16V276.313C261.825 276.418 261.547 276.51 261.271 276.591C260.995 276.667 260.705 276.729 260.401 276.774C260.097 276.816 259.763 276.837 259.4 276.837C258.488 276.837 257.756 276.591 257.204 276.098C256.655 275.605 256.381 274.866 256.381 273.881V271.303H257.618V273.881C257.618 274.293 257.697 274.632 257.854 274.898C258.011 275.163 258.224 275.361 258.493 275.49C258.762 275.619 259.064 275.684 259.4 275.684C259.924 275.684 260.397 275.637 260.82 275.542C261.246 275.445 261.674 275.317 262.104 275.16ZM266.092 277.55L269.971 271.324H271.396V279.373H270.159V273.147L266.302 279.373H264.856V271.324H266.092V277.55ZM272.566 272.477V271.324H279.107V272.477H276.465V279.373H275.228V272.477H272.566ZM281.98 274.237H284.286C285.229 274.237 285.951 274.477 286.45 274.955C286.95 275.434 287.2 276.04 287.2 276.774C287.2 277.256 287.088 277.695 286.864 278.089C286.641 278.481 286.312 278.793 285.879 279.028C285.446 279.258 284.915 279.373 284.286 279.373H280.911V271.324H282.148V278.22H284.286C284.775 278.22 285.177 278.091 285.491 277.833C285.806 277.574 285.963 277.242 285.963 276.837C285.963 276.411 285.806 276.063 285.491 275.794C285.177 275.525 284.775 275.39 284.286 275.39H281.98V274.237ZM103.041 297.541C102.315 297.541 101.677 297.368 101.128 297.022C100.583 296.676 100.157 296.193 99.8497 295.571C99.5457 294.949 99.3937 294.222 99.3937 293.39C99.3937 292.552 99.5457 291.82 99.8497 291.195C100.157 290.569 100.583 290.084 101.128 289.738C101.677 289.392 102.315 289.219 103.041 289.219C103.768 289.219 104.404 289.392 104.949 289.738C105.497 290.084 105.924 290.569 106.228 291.195C106.535 291.82 106.689 292.552 106.689 293.39C106.689 294.222 106.535 294.949 106.228 295.571C105.924 296.193 105.497 296.676 104.949 297.022C104.404 297.368 103.768 297.541 103.041 297.541ZM103.041 296.43C103.593 296.43 104.048 296.289 104.404 296.006C104.76 295.723 105.024 295.351 105.195 294.889C105.366 294.428 105.452 293.929 105.452 293.39C105.452 292.852 105.366 292.351 105.195 291.886C105.024 291.422 104.76 291.046 104.404 290.76C104.048 290.473 103.593 290.33 103.041 290.33C102.489 290.33 102.035 290.473 101.679 290.76C101.322 291.046 101.059 291.422 100.887 291.886C100.716 292.351 100.631 292.852 100.631 293.39C100.631 293.929 100.716 294.428 100.887 294.889C101.059 295.351 101.322 295.723 101.679 296.006C102.035 296.289 102.489 296.43 103.041 296.43ZM108.577 297.373V289.324H114.908V297.373H113.671V290.477H109.814V297.373H108.577ZM118.403 295.55L122.282 289.324H123.707V297.373H122.47V291.147L118.613 297.373H117.167V289.324H118.403V295.55ZM129.243 297.541C128.488 297.541 127.838 297.363 127.293 297.007C126.748 296.65 126.329 296.159 126.035 295.534C125.742 294.909 125.595 294.194 125.595 293.39C125.595 292.573 125.745 291.851 126.046 291.226C126.35 290.597 126.773 290.106 127.314 289.753C127.859 289.397 128.495 289.219 129.222 289.219C129.788 289.219 130.298 289.324 130.752 289.533C131.206 289.743 131.578 290.036 131.868 290.414C132.158 290.791 132.338 291.231 132.408 291.734H131.171C131.077 291.368 130.867 291.043 130.542 290.76C130.221 290.473 129.788 290.33 129.243 290.33C128.761 290.33 128.338 290.456 127.974 290.707C127.615 290.955 127.333 291.306 127.131 291.761C126.931 292.211 126.832 292.741 126.832 293.349C126.832 293.97 126.93 294.512 127.125 294.973C127.325 295.434 127.604 295.793 127.964 296.048C128.327 296.303 128.754 296.43 129.243 296.43C129.564 296.43 129.856 296.374 130.118 296.262C130.38 296.151 130.602 295.99 130.783 295.78C130.965 295.571 131.094 295.319 131.171 295.026H132.408C132.338 295.501 132.165 295.929 131.889 296.31C131.617 296.687 131.255 296.987 130.804 297.211C130.357 297.431 129.837 297.541 129.243 297.541ZM136.585 297.562C136.075 297.562 135.612 297.466 135.196 297.274C134.78 297.078 134.45 296.797 134.206 296.43C133.961 296.06 133.839 295.613 133.839 295.088C133.839 294.627 133.93 294.253 134.111 293.967C134.293 293.677 134.536 293.45 134.84 293.286C135.144 293.121 135.479 292.999 135.846 292.919C136.216 292.835 136.589 292.769 136.962 292.72C137.452 292.657 137.848 292.61 138.152 292.578C138.459 292.543 138.683 292.486 138.823 292.405C138.966 292.325 139.038 292.185 139.038 291.986V291.944C139.038 291.427 138.896 291.025 138.613 290.739C138.334 290.452 137.909 290.309 137.34 290.309C136.749 290.309 136.286 290.438 135.951 290.697C135.615 290.955 135.38 291.231 135.243 291.525L134.069 291.105C134.279 290.616 134.559 290.236 134.908 289.963C135.261 289.687 135.645 289.495 136.061 289.386C136.48 289.275 136.892 289.219 137.298 289.219C137.556 289.219 137.853 289.25 138.189 289.313C138.528 289.373 138.854 289.497 139.169 289.685C139.487 289.874 139.75 290.159 139.96 290.539C140.17 290.92 140.275 291.43 140.275 292.07V297.373H139.038V296.283H138.975C138.891 296.458 138.751 296.645 138.556 296.844C138.36 297.043 138.1 297.213 137.775 297.353C137.45 297.492 137.053 297.562 136.585 297.562ZM136.774 296.451C137.263 296.451 137.675 296.355 138.011 296.163C138.349 295.971 138.604 295.723 138.776 295.419C138.95 295.115 139.038 294.795 139.038 294.46V293.328C138.985 293.39 138.87 293.448 138.692 293.501C138.517 293.549 138.314 293.593 138.084 293.632C137.857 293.666 137.635 293.698 137.418 293.726C137.205 293.75 137.032 293.771 136.899 293.789C136.578 293.831 136.278 293.899 135.998 293.993C135.722 294.084 135.498 294.222 135.327 294.407C135.16 294.589 135.076 294.837 135.076 295.151C135.076 295.581 135.235 295.906 135.553 296.126C135.874 296.343 136.281 296.451 136.774 296.451ZM147.92 292.783V293.936H143.475V292.783H147.92ZM143.769 289.324V297.373H142.532V289.324H143.769ZM148.863 289.324V297.373H147.626V289.324H148.863ZM152.359 295.55L156.237 289.324H157.662V297.373H156.425V291.147L152.568 297.373H151.122V289.324H152.359V295.55ZM163.303 297.541C162.527 297.541 161.858 297.37 161.295 297.028C160.736 296.682 160.305 296.2 160.001 295.581C159.7 294.959 159.55 294.236 159.55 293.411C159.55 292.587 159.7 291.86 160.001 291.231C160.305 290.599 160.728 290.106 161.269 289.753C161.814 289.397 162.45 289.219 163.177 289.219C163.596 289.219 164.01 289.289 164.419 289.428C164.828 289.568 165.2 289.795 165.535 290.11C165.871 290.421 166.138 290.833 166.337 291.347C166.536 291.86 166.636 292.493 166.636 293.244V293.768H160.431V292.699H165.378C165.378 292.244 165.287 291.839 165.105 291.483C164.927 291.126 164.672 290.845 164.34 290.639C164.012 290.433 163.624 290.33 163.177 290.33C162.684 290.33 162.258 290.452 161.898 290.697C161.542 290.938 161.267 291.252 161.075 291.64C160.883 292.028 160.787 292.444 160.787 292.887V293.6C160.787 294.208 160.892 294.723 161.101 295.146C161.315 295.565 161.61 295.885 161.987 296.105C162.365 296.322 162.803 296.43 163.303 296.43C163.628 296.43 163.921 296.385 164.183 296.294C164.449 296.2 164.677 296.06 164.87 295.875C165.062 295.686 165.21 295.452 165.315 295.172L166.51 295.508C166.384 295.913 166.173 296.269 165.876 296.577C165.579 296.881 165.212 297.118 164.775 297.29C164.339 297.457 163.848 297.541 163.303 297.541ZM173.905 295.55L177.783 289.324H179.208V297.373H177.972V291.147L174.114 297.373H172.668V289.324H173.905V295.55ZM186.547 289.324L188.475 292.615L190.404 289.324H191.83L189.23 293.349L191.83 297.373H190.404L188.475 294.25L186.547 297.373H185.121L187.679 293.349L185.121 289.324H186.547ZM195.963 297.562C195.453 297.562 194.99 297.466 194.574 297.274C194.159 297.078 193.829 296.797 193.584 296.43C193.339 296.06 193.217 295.613 193.217 295.088C193.217 294.627 193.308 294.253 193.49 293.967C193.671 293.677 193.914 293.45 194.218 293.286C194.522 293.121 194.857 292.999 195.224 292.919C195.595 292.835 195.967 292.769 196.341 292.72C196.83 292.657 197.226 292.61 197.53 292.578C197.838 292.543 198.061 292.486 198.201 292.405C198.344 292.325 198.416 292.185 198.416 291.986V291.944C198.416 291.427 198.274 291.025 197.991 290.739C197.712 290.452 197.287 290.309 196.718 290.309C196.127 290.309 195.665 290.438 195.329 290.697C194.994 290.955 194.758 291.231 194.622 291.525L193.448 291.105C193.657 290.616 193.937 290.236 194.286 289.963C194.639 289.687 195.023 289.495 195.439 289.386C195.858 289.275 196.271 289.219 196.676 289.219C196.935 289.219 197.232 289.25 197.567 289.313C197.906 289.373 198.233 289.497 198.547 289.685C198.865 289.874 199.129 290.159 199.338 290.539C199.548 290.92 199.653 291.43 199.653 292.07V297.373H198.416V296.283H198.353C198.269 296.458 198.129 296.645 197.934 296.844C197.738 297.043 197.478 297.213 197.153 297.353C196.828 297.492 196.431 297.562 195.963 297.562ZM196.152 296.451C196.641 296.451 197.053 296.355 197.389 296.163C197.728 295.971 197.983 295.723 198.154 295.419C198.329 295.115 198.416 294.795 198.416 294.46V293.328C198.364 293.39 198.248 293.448 198.07 293.501C197.895 293.549 197.693 293.593 197.462 293.632C197.235 293.666 197.013 293.698 196.797 293.726C196.583 293.75 196.41 293.771 196.278 293.789C195.956 293.831 195.656 293.899 195.376 293.993C195.1 294.084 194.877 294.222 194.705 294.407C194.538 294.589 194.454 294.837 194.454 295.151C194.454 295.581 194.613 295.906 194.931 296.126C195.252 296.343 195.659 296.451 196.152 296.451ZM201.91 300.392V289.324H203.105V290.602H203.252C203.343 290.463 203.469 290.284 203.629 290.068C203.793 289.848 204.028 289.652 204.332 289.481C204.639 289.306 205.055 289.219 205.579 289.219C206.257 289.219 206.854 289.388 207.371 289.727C207.888 290.066 208.292 290.546 208.582 291.168C208.872 291.79 209.017 292.524 209.017 293.37C209.017 294.222 208.872 294.961 208.582 295.586C208.292 296.208 207.89 296.69 207.376 297.033C206.863 297.372 206.271 297.541 205.6 297.541C205.083 297.541 204.669 297.456 204.358 297.284C204.047 297.11 203.807 296.912 203.64 296.692C203.472 296.469 203.343 296.283 203.252 296.137H203.147V300.392H201.91ZM203.126 293.349C203.126 293.956 203.215 294.493 203.393 294.957C203.572 295.419 203.832 295.78 204.174 296.042C204.517 296.301 204.936 296.43 205.432 296.43C205.949 296.43 206.381 296.294 206.727 296.021C207.076 295.745 207.338 295.375 207.513 294.91C207.691 294.442 207.78 293.922 207.78 293.349C207.78 292.783 207.693 292.272 207.518 291.818C207.347 291.361 207.086 290.999 206.737 290.733C206.391 290.464 205.956 290.33 205.432 290.33C204.929 290.33 204.506 290.457 204.164 290.712C203.821 290.964 203.563 291.317 203.388 291.771C203.213 292.222 203.126 292.748 203.126 293.349ZM213.272 297.562C212.762 297.562 212.299 297.466 211.884 297.274C211.468 297.078 211.138 296.797 210.893 296.43C210.648 296.06 210.526 295.613 210.526 295.088C210.526 294.627 210.617 294.253 210.799 293.967C210.98 293.677 211.223 293.45 211.527 293.286C211.831 293.121 212.167 292.999 212.533 292.919C212.904 292.835 213.276 292.769 213.65 292.72C214.139 292.657 214.535 292.61 214.839 292.578C215.147 292.543 215.37 292.486 215.51 292.405C215.653 292.325 215.725 292.185 215.725 291.986V291.944C215.725 291.427 215.584 291.025 215.301 290.739C215.021 290.452 214.596 290.309 214.027 290.309C213.437 290.309 212.974 290.438 212.638 290.697C212.303 290.955 212.067 291.231 211.931 291.525L210.757 291.105C210.966 290.616 211.246 290.236 211.595 289.963C211.948 289.687 212.332 289.495 212.748 289.386C213.168 289.275 213.58 289.219 213.985 289.219C214.244 289.219 214.541 289.25 214.876 289.313C215.215 289.373 215.542 289.497 215.856 289.685C216.174 289.874 216.438 290.159 216.647 290.539C216.857 290.92 216.962 291.43 216.962 292.07V297.373H215.725V296.283H215.662C215.578 296.458 215.439 296.645 215.243 296.844C215.047 297.043 214.787 297.213 214.462 297.353C214.137 297.492 213.741 297.562 213.272 297.562ZM213.461 296.451C213.95 296.451 214.362 296.355 214.698 296.163C215.037 295.971 215.292 295.723 215.463 295.419C215.638 295.115 215.725 294.795 215.725 294.46V293.328C215.673 293.39 215.557 293.448 215.379 293.501C215.204 293.549 215.002 293.593 214.771 293.632C214.544 293.666 214.322 293.698 214.106 293.726C213.892 293.75 213.72 293.771 213.587 293.789C213.265 293.831 212.965 293.899 212.685 293.993C212.409 294.084 212.186 294.222 212.015 294.407C211.847 294.589 211.763 294.837 211.763 295.151C211.763 295.581 211.922 295.906 212.24 296.126C212.561 296.343 212.968 296.451 213.461 296.451ZM219.219 297.373V289.324H220.456V292.824H221.274L224.167 289.324H225.76L222.511 293.202L225.802 297.373H224.209L221.567 293.977H220.456V297.373H219.219ZM226.685 290.477V289.324H233.225V290.477H230.584V297.373H229.347V290.477H226.685ZM237.987 297.541C237.211 297.541 236.542 297.37 235.979 297.028C235.42 296.682 234.989 296.2 234.685 295.581C234.384 294.959 234.234 294.236 234.234 293.411C234.234 292.587 234.384 291.86 234.685 291.231C234.989 290.599 235.412 290.106 235.953 289.753C236.498 289.397 237.134 289.219 237.861 289.219C238.28 289.219 238.694 289.289 239.103 289.428C239.512 289.568 239.884 289.795 240.219 290.11C240.555 290.421 240.822 290.833 241.021 291.347C241.22 291.86 241.32 292.493 241.32 293.244V293.768H235.115V292.699H240.062C240.062 292.244 239.971 291.839 239.789 291.483C239.611 291.126 239.356 290.845 239.024 290.639C238.696 290.433 238.308 290.33 237.861 290.33C237.368 290.33 236.942 290.452 236.582 290.697C236.226 290.938 235.951 291.252 235.759 291.64C235.567 292.028 235.471 292.444 235.471 292.887V293.6C235.471 294.208 235.576 294.723 235.785 295.146C235.999 295.565 236.294 295.885 236.671 296.105C237.049 296.322 237.487 296.43 237.987 296.43C238.312 296.43 238.605 296.385 238.867 296.294C239.133 296.2 239.361 296.06 239.554 295.875C239.746 295.686 239.894 295.452 239.999 295.172L241.194 295.508C241.068 295.913 240.857 296.269 240.56 296.577C240.263 296.881 239.896 297.118 239.459 297.29C239.023 297.457 238.532 297.541 237.987 297.541ZM243.201 300.392V289.324H244.396V290.602H244.543C244.634 290.463 244.759 290.284 244.92 290.068C245.084 289.848 245.318 289.652 245.622 289.481C245.93 289.306 246.346 289.219 246.87 289.219C247.548 289.219 248.145 289.388 248.662 289.727C249.179 290.066 249.583 290.546 249.873 291.168C250.163 291.79 250.308 292.524 250.308 293.37C250.308 294.222 250.163 294.961 249.873 295.586C249.583 296.208 249.181 296.69 248.667 297.033C248.154 297.372 247.562 297.541 246.891 297.541C246.374 297.541 245.96 297.456 245.649 297.284C245.338 297.11 245.098 296.912 244.931 296.692C244.763 296.469 244.634 296.283 244.543 296.137H244.438V300.392H243.201ZM244.417 293.349C244.417 293.956 244.506 294.493 244.684 294.957C244.863 295.419 245.123 295.78 245.465 296.042C245.808 296.301 246.227 296.43 246.723 296.43C247.24 296.43 247.672 296.294 248.018 296.021C248.367 295.745 248.629 295.375 248.804 294.91C248.982 294.442 249.071 293.922 249.071 293.349C249.071 292.783 248.984 292.272 248.809 291.818C248.638 291.361 248.377 290.999 248.028 290.733C247.682 290.464 247.247 290.33 246.723 290.33C246.22 290.33 245.797 290.457 245.455 290.712C245.112 290.964 244.854 291.317 244.679 291.771C244.504 292.222 244.417 292.748 244.417 293.349ZM253.431 295.55L257.309 289.324H258.735V297.373H257.498V291.147L253.641 297.373H252.194V289.324H253.431V295.55ZM264.271 297.541C263.516 297.541 262.866 297.363 262.321 297.007C261.776 296.65 261.357 296.159 261.063 295.534C260.77 294.909 260.623 294.194 260.623 293.39C260.623 292.573 260.773 291.851 261.074 291.226C261.378 290.597 261.8 290.106 262.342 289.753C262.887 289.397 263.523 289.219 264.25 289.219C264.816 289.219 265.326 289.324 265.78 289.533C266.234 289.743 266.606 290.036 266.896 290.414C267.186 290.791 267.366 291.231 267.436 291.734H266.199C266.105 291.368 265.895 291.043 265.57 290.76C265.249 290.473 264.816 290.33 264.271 290.33C263.788 290.33 263.366 290.456 263.002 290.707C262.642 290.955 262.361 291.306 262.158 291.761C261.959 292.211 261.86 292.741 261.86 293.349C261.86 293.97 261.958 294.512 262.153 294.973C262.352 295.434 262.632 295.793 262.992 296.048C263.355 296.303 263.781 296.43 264.271 296.43C264.592 296.43 264.884 296.374 265.146 296.262C265.408 296.151 265.63 295.99 265.811 295.78C265.993 295.571 266.122 295.319 266.199 295.026H267.436C267.366 295.501 267.193 295.929 266.917 296.31C266.645 296.687 266.283 296.987 265.832 297.211C265.385 297.431 264.864 297.541 264.271 297.541ZM268.61 290.477V289.324H275.15V290.477H272.509V297.373H271.272V290.477H268.61ZM278.191 295.55L282.07 289.324H283.495V297.373H282.258V291.147L278.401 297.373H276.955V289.324H278.191V295.55ZM285.76 297.373V289.324H286.997V292.824H287.815L290.708 289.324H292.301L289.052 293.202L292.343 297.373H290.75L288.108 293.977H286.997V297.373H285.76ZM294.924 295.55L298.802 289.324H300.228V297.373H298.991V291.147L295.134 297.373H293.687V289.324H294.924V295.55Z" fill="#151517" fill-opacity="0.68"/>
<path d="M181.234 108.863L182.819 94.5954C183.045 92.7835 184.629 91.4247 186.44 91.6512L242.119 97.5393C243.93 97.7658 245.288 99.3511 245.062 101.163L239.177 156.874C239.177 158.459 237.366 159.818 235.556 159.818L221.07 158.232M219.938 146.683L232.386 148.042C233.065 148.042 233.518 147.589 233.745 146.909C233.745 146.683 233.745 146.456 233.518 146.23L219.938 121.545C219.711 121.092 218.806 120.866 218.353 121.092L217.448 121.998M212.243 105.466C214.053 105.239 215.864 106.598 215.864 108.41L221.749 164.347C221.975 166.159 220.617 167.971 218.806 167.971L163.127 173.859C161.316 174.085 159.506 172.727 159.506 170.915L153.621 115.204C153.395 113.392 154.753 111.58 156.563 111.58L212.243 105.466ZM173.312 120.866C169.238 121.319 166.07 124.942 166.522 129.245C166.975 133.321 170.596 136.492 174.897 136.039C178.971 135.586 182.14 131.963 181.687 127.66C181.235 123.357 177.387 120.413 173.312 120.866ZM193.909 134.001L183.045 147.362C182.592 147.815 181.913 148.042 181.46 147.589L178.971 145.551C178.518 145.098 177.613 145.324 177.386 145.777L165.617 160.271C165.164 160.724 165.164 161.63 165.843 161.857C165.617 162.083 166.069 162.083 166.296 162.083L213.148 157.101C213.827 157.101 214.279 156.421 214.279 155.742C214.279 155.515 214.053 155.289 214.053 155.063L195.72 133.775C195.041 133.548 194.362 133.548 193.909 134.001Z" stroke="#606062" stroke-width="2.92207" stroke-linecap="round" stroke-linejoin="round"/>
</svg>
