<svg width="24" height="24" viewBox="0 0 24 24" fill="none" xmlns="http://www.w3.org/2000/svg">
<path d="M12.5936 4.30424H12.5861C12.4365 4.30424 12.3157 4.42125 12.312 4.57087C12.3082 4.7205 12.4252 4.84837 12.5749 4.85212C17.3719 5.02012 21.1279 7.23412 21.1279 9.89025C21.1279 12.3454 17.9494 14.4315 13.5761 14.8556C13.5079 14.8621 13.4446 14.8938 13.3986 14.9445C13.3526 14.9952 13.3273 15.0613 13.3275 15.1297V17.457C13.3275 17.6482 13.5326 17.7727 13.6234 17.7274C19.3777 17.2744 23.718 14.4026 23.718 11.0449C23.7187 7.44262 18.8302 4.48349 12.5936 4.30424Z" fill="currentColor"/>
<path d="M10.6136 12.711C10.4531 12.5104 10.1239 12.6199 10.1239 12.879V14.8226C5.96625 14.3441 2.87175 12.2509 2.87175 9.89063C2.87175 7.2345 6.62775 5.0205 11.4172 4.8525C11.4532 4.85158 11.4887 4.84357 11.5216 4.82893C11.5545 4.81428 11.5841 4.7933 11.6089 4.76718C11.6337 4.74105 11.653 4.7103 11.6659 4.67668C11.6788 4.64306 11.6849 4.60723 11.6839 4.57125C11.6768 4.42163 11.5635 4.29 11.4026 4.30463C5.166 4.4835 0.28125 7.44263 0.28125 11.0453C0.28125 14.3516 4.49362 17.1904 10.1239 17.7094V19.4228C10.1239 19.6838 10.4475 19.7933 10.6136 19.5945L13.1749 16.3245C13.2123 16.2758 13.2326 16.2161 13.2326 16.1546C13.2326 16.0932 13.2123 16.0335 13.1749 15.9848L10.6136 12.711ZM17.3471 6.88725C17.3405 6.66251 17.2466 6.44919 17.0853 6.29257C16.924 6.13594 16.708 6.04833 16.4831 6.04833C16.2583 6.04833 16.0423 6.13594 15.881 6.29257C15.7197 6.44919 15.6257 6.66251 15.6191 6.88725C15.6188 7.11634 15.7094 7.33618 15.8711 7.49852C16.0327 7.66086 16.2522 7.75243 16.4813 7.75313C16.595 7.75322 16.7076 7.7309 16.8127 7.68742C16.9178 7.64394 17.0133 7.58016 17.0937 7.49974C17.1742 7.41931 17.2379 7.32382 17.2814 7.21872C17.3249 7.11363 17.3472 7.00099 17.3471 6.88725Z" fill="currentColor"/>
<path d="M8.78626 10.9102C8.64413 11.0126 8.46413 11.0636 8.24475 11.0636C7.9065 11.0636 7.58325 10.9556 7.27463 10.74L7.005 11.2522C7.3965 11.5147 7.797 11.646 8.20688 11.646C8.61676 11.646 8.95163 11.5365 9.21226 11.3171C9.47288 11.0981 9.603 10.7962 9.603 10.4115C9.603 10.1242 9.50588 9.87712 9.31163 9.6705C9.11813 9.46387 8.8485 9.35512 8.50313 9.34425L9.41438 8.32537V7.82962H7.21013V8.3955H8.57363L7.70063 9.40875V9.894C7.83157 9.85433 7.96769 9.83436 8.1045 9.83475C8.38463 9.83475 8.604 9.89212 8.76188 10.0072C8.92013 10.1224 8.99963 10.2757 8.99963 10.4681C8.99963 10.6605 8.92838 10.8079 8.78626 10.9102ZM11.8181 8.331C11.9258 8.331 12.0491 8.35987 12.1871 8.41725C12.3259 8.47462 12.4358 8.53912 12.519 8.61112L12.837 8.14237C12.522 7.89257 12.1313 7.75764 11.7293 7.75987C11.3213 7.75987 10.9774 7.90687 10.6973 8.20162C10.5533 8.35237 10.4404 8.5575 10.3571 8.81625C10.2746 9.075 10.2334 9.39825 10.2334 9.78637C10.2334 10.7936 10.6358 11.6407 11.6783 11.6407C12.0514 11.6407 12.3619 11.5275 12.6075 11.301C12.8539 11.0745 12.9773 10.7756 12.9773 10.4036C12.9773 10.0316 12.8629 9.7335 12.6349 9.50887C12.4061 9.28425 12.1238 9.17212 11.7859 9.17212C11.5808 9.17212 11.3936 9.216 11.2249 9.30375C11.0561 9.39187 10.9268 9.48637 10.8368 9.58687C10.8401 9.2025 10.9215 8.89687 11.0798 8.67037C11.2376 8.44425 11.484 8.331 11.8181 8.331ZM11.1578 9.91312C11.3036 9.79275 11.4848 9.73237 11.7026 9.73237C11.9194 9.73237 12.093 9.79987 12.2228 9.9345C12.3518 10.0691 12.4163 10.2326 12.4163 10.425C12.4163 10.6174 12.3465 10.7752 12.2059 10.899C12.066 11.0231 11.8894 11.085 11.6783 11.085C11.466 11.085 11.2898 11.016 11.1499 10.8772C11.0825 10.8136 11.029 10.7367 10.9928 10.6514C10.9566 10.5661 10.9384 10.4742 10.9395 10.3815C10.9395 10.1899 11.0126 10.0335 11.1578 9.91312ZM13.953 8.26912C13.6976 8.62312 13.5701 9.09675 13.5701 9.68962C13.5701 10.2825 13.6976 10.7557 13.953 11.1097C14.2084 11.4637 14.5928 11.6407 15.1061 11.6407C15.6203 11.6407 16.0046 11.4637 16.2596 11.1097C16.515 10.7557 16.6425 10.2825 16.6425 9.68962C16.6425 9.09675 16.515 8.62312 16.2596 8.26912C16.005 7.91512 15.6206 7.7385 15.1061 7.7385C14.5928 7.73812 14.2084 7.91512 13.953 8.26912ZM15.7988 8.66775C15.9446 8.925 16.0174 9.26512 16.0174 9.68925C16.0174 10.113 15.9446 10.4539 15.7988 10.7104C15.6536 10.9672 15.4226 11.0959 15.1061 11.0959C14.79 11.0959 14.5571 10.9665 14.4083 10.7077C14.259 10.449 14.1844 10.1096 14.1844 9.68925C14.1844 9.2685 14.259 8.92912 14.4083 8.67037C14.5568 8.41162 14.7896 8.28225 15.1061 8.28225C15.4226 8.28262 15.6536 8.41125 15.7988 8.66775Z" fill="currentColor"/>
</svg>
