<svg width="24" height="24" viewBox="0 0 24 24" fill="none" xmlns="http://www.w3.org/2000/svg">
<g clip-path="url(#clip0_3944_59958)">
<g filter="url(#filter0_di_3944_59958)">
<path d="M18.1498 24H5.84985C3.86162 24 2.24985 22.3882 2.24985 20.4V3.6C2.24985 1.61177 3.86162 0 5.84985 0H12.3531C13.2982 0 14.2054 0.371665 14.8789 1.03476L20.6756 6.7423C21.3629 7.41897 21.7498 8.34309 21.7498 9.30754V20.4C21.7498 22.3882 20.1381 24 18.1498 24Z" fill="white"/>
<path d="M5.84946 0.450195H12.3534C13.1803 0.450258 13.9741 0.775316 14.5633 1.35547L20.3602 7.0625C20.9615 7.65458 21.2997 8.46372 21.2997 9.30762V20.4004C21.2994 22.1398 19.8896 23.5496 18.1502 23.5498H5.84946C4.11007 23.5496 2.70025 22.1398 2.70004 20.4004V3.59961C2.70025 1.86022 4.11007 0.450406 5.84946 0.450195Z" stroke="#E3E3E3" stroke-width="0.9"/>
</g>
<path d="M13.5 0.75V5.85C13.5 7.17548 14.5745 8.25 15.9 8.25H21" stroke="#E3E3E3" stroke-width="0.9"/>
<g filter="url(#filter1_i_3944_59958)">
<mask id="path-4-inside-1_3944_59958" fill="white">
<path d="M0 12.25C0 11.0074 1.00736 10 2.25 10H17.25C18.4926 10 19.5 11.0074 19.5 12.25V18.75C19.5 19.9926 18.4926 21 17.25 21H2.25C1.00736 21 0 19.9926 0 18.75V12.25Z"/>
</mask>
<path d="M0 12.25C0 11.0074 1.00736 10 2.25 10H17.25C18.4926 10 19.5 11.0074 19.5 12.25V18.75C19.5 19.9926 18.4926 21 17.25 21H2.25C1.00736 21 0 19.9926 0 18.75V12.25Z" fill="#3066F0"/>
<path d="M-0.6 12.25C-0.6 10.676 0.675988 9.4 2.25 9.4H17.25C18.824 9.4 20.1 10.676 20.1 12.25H18.9C18.9 11.3387 18.1613 10.6 17.25 10.6H2.25C1.33873 10.6 0.6 11.3387 0.6 12.25H-0.6ZM19.5 21H0H19.5ZM2.25 21C0.675988 21 -0.6 19.724 -0.6 18.15V12.25C-0.6 10.676 0.675988 9.4 2.25 9.4V10.6C1.33873 10.6 0.6 11.3387 0.6 12.25V18.75C0.6 19.9926 1.33873 21 2.25 21ZM17.25 9.4C18.824 9.4 20.1 10.676 20.1 12.25V18.15C20.1 19.724 18.824 21 17.25 21C18.1613 21 18.9 19.9926 18.9 18.75V12.25C18.9 11.3387 18.1613 10.6 17.25 10.6V9.4Z" fill="currentColor" fill-opacity="0.04" mask="url(#path-4-inside-1_3944_59958)"/>
<path d="M2.72344 17.5V12.7H4.52344C4.89219 12.7 5.20156 12.7687 5.45156 12.9062C5.70313 13.0437 5.89297 13.2328 6.02109 13.4734C6.15078 13.7125 6.21563 13.9844 6.21563 14.2891C6.21563 14.5969 6.15078 14.8703 6.02109 15.1094C5.89141 15.3484 5.7 15.5367 5.44688 15.6742C5.19375 15.8102 4.88203 15.8781 4.51172 15.8781H3.31875V15.1633H4.39453C4.61016 15.1633 4.78672 15.1258 4.92422 15.0508C5.06172 14.9758 5.16328 14.8727 5.22891 14.7414C5.29609 14.6102 5.32969 14.4594 5.32969 14.2891C5.32969 14.1187 5.29609 13.9687 5.22891 13.8391C5.16328 13.7094 5.06094 13.6086 4.92188 13.5367C4.78438 13.4633 4.60703 13.4266 4.38984 13.4266H3.59297V17.5H2.72344ZM11.0474 12.7V17.5H10.274L8.01227 14.2305H7.97243V17.5H7.1029V12.7H7.88102L10.1404 15.9719H10.1826V12.7H11.0474ZM15.3425 14.2328C15.3035 14.1062 15.2495 13.993 15.1808 13.893C15.1136 13.7914 15.0324 13.7047 14.937 13.6328C14.8433 13.5609 14.7355 13.507 14.6136 13.4711C14.4917 13.4336 14.3589 13.4148 14.2152 13.4148C13.9574 13.4148 13.7277 13.4797 13.5261 13.6094C13.3245 13.7391 13.166 13.9297 13.0503 14.1812C12.9363 14.4312 12.8792 14.7359 12.8792 15.0953C12.8792 15.4578 12.9363 15.7648 13.0503 16.0164C13.1644 16.268 13.323 16.4594 13.5261 16.5906C13.7292 16.7203 13.9652 16.7852 14.2339 16.7852C14.4777 16.7852 14.6886 16.7383 14.8667 16.6445C15.0464 16.5508 15.1847 16.418 15.2816 16.2461C15.3785 16.0727 15.4269 15.8695 15.4269 15.6367L15.6238 15.6672H14.3206V14.9875H16.2683V15.5641C16.2683 15.975 16.1808 16.3305 16.0058 16.6305C15.8308 16.9305 15.5902 17.1617 15.2839 17.3242C14.9777 17.4852 14.6261 17.5656 14.2292 17.5656C13.787 17.5656 13.3988 17.4664 13.0644 17.268C12.7316 17.068 12.4714 16.7844 12.2839 16.4172C12.098 16.0484 12.005 15.6109 12.005 15.1047C12.005 14.7172 12.0597 14.3711 12.1691 14.0664C12.28 13.7617 12.4347 13.5031 12.6331 13.2906C12.8316 13.0766 13.0644 12.9141 13.3316 12.8031C13.5988 12.6906 13.8894 12.6344 14.2035 12.6344C14.4691 12.6344 14.7167 12.6734 14.9464 12.7516C15.1761 12.8281 15.38 12.9375 15.5581 13.0797C15.7378 13.2219 15.8855 13.3906 16.0011 13.5859C16.1167 13.7812 16.1925 13.9969 16.2285 14.2328H15.3425Z" fill="white"/>
</g>
</g>
<defs>
<filter id="filter0_di_3944_59958" x="1.04985" y="-2.4" width="21.9" height="28.2" filterUnits="userSpaceOnUse" color-interpolation-filters="sRGB">
<feFlood flood-opacity="0" result="BackgroundImageFix"/>
<feColorMatrix in="SourceAlpha" type="matrix" values="0 0 0 0 0 0 0 0 0 0 0 0 0 0 0 0 0 0 127 0" result="hardAlpha"/>
<feOffset dy="0.6"/>
<feGaussianBlur stdDeviation="0.6"/>
<feComposite in2="hardAlpha" operator="out"/>
<feColorMatrix type="matrix" values="0 0 0 0 0.894118 0 0 0 0 0.898039 0 0 0 0 0.905882 0 0 0 0.24 0"/>
<feBlend mode="normal" in2="BackgroundImageFix" result="effect1_dropShadow_3944_59958"/>
<feBlend mode="normal" in="SourceGraphic" in2="effect1_dropShadow_3944_59958" result="shape"/>
<feColorMatrix in="SourceAlpha" type="matrix" values="0 0 0 0 0 0 0 0 0 0 0 0 0 0 0 0 0 0 127 0" result="hardAlpha"/>
<feOffset dy="-2.4"/>
<feGaussianBlur stdDeviation="1.2"/>
<feComposite in2="hardAlpha" operator="arithmetic" k2="-1" k3="1"/>
<feColorMatrix type="matrix" values="0 0 0 0 0.813571 0 0 0 0 0.82 0 0 0 0 0.826429 0 0 0 0.32 0"/>
<feBlend mode="normal" in2="shape" result="effect2_innerShadow_3944_59958"/>
</filter>
<filter id="filter1_i_3944_59958" x="0" y="10" width="19.5" height="13.4" filterUnits="userSpaceOnUse" color-interpolation-filters="sRGB">
<feFlood flood-opacity="0" result="BackgroundImageFix"/>
<feBlend mode="normal" in="SourceGraphic" in2="BackgroundImageFix" result="shape"/>
<feColorMatrix in="SourceAlpha" type="matrix" values="0 0 0 0 0 0 0 0 0 0 0 0 0 0 0 0 0 0 127 0" result="hardAlpha"/>
<feOffset dy="2.4"/>
<feGaussianBlur stdDeviation="1.2"/>
<feComposite in2="hardAlpha" operator="arithmetic" k2="-1" k3="1"/>
<feColorMatrix type="matrix" values="0 0 0 0 1 0 0 0 0 1 0 0 0 0 1 0 0 0 0.08 0"/>
<feBlend mode="normal" in2="shape" result="effect1_innerShadow_3944_59958"/>
</filter>
<clipPath id="clip0_3944_59958">
<rect width="24" height="24" fill="white"/>
</clipPath>
</defs>
</svg>
