<svg width="24" height="24" viewBox="0 0 24 24" fill="none" xmlns="http://www.w3.org/2000/svg">
<g clip-path="url(#clip0_9946_54717)">
<g filter="url(#filter0_di_9946_54717)">
<path d="M18.1498 24H5.84985C3.86162 24 2.24985 22.3882 2.24985 20.4V3.6C2.24985 1.61177 3.86162 0 5.84985 0H12.3531C13.2982 0 14.2054 0.371665 14.8789 1.03476L20.6756 6.7423C21.3629 7.41897 21.7498 8.34309 21.7498 9.30754V20.4C21.7498 22.3882 20.1381 24 18.1498 24Z" fill="white"/>
<path d="M5.84946 0.450195H12.3534C13.1803 0.450258 13.9741 0.775316 14.5633 1.35547L20.3602 7.0625C20.9615 7.65458 21.2997 8.46372 21.2997 9.30762V20.4004C21.2994 22.1398 19.8896 23.5496 18.1502 23.5498H5.84946C4.11007 23.5496 2.70025 22.1398 2.70004 20.4004V3.59961C2.70025 1.86022 4.11007 0.450406 5.84946 0.450195Z" stroke="#E3E3E3" stroke-width="0.9"/>
</g>
<path d="M13.5 0.75V5.85C13.5 7.17548 14.5745 8.25 15.9 8.25H21" stroke="#E3E3E3" stroke-width="0.9"/>
</g>
<defs>
<filter id="filter0_di_9946_54717" x="1.04985" y="-2.4" width="21.9" height="28.2" filterUnits="userSpaceOnUse" color-interpolation-filters="sRGB">
<feFlood flood-opacity="0" result="BackgroundImageFix"/>
<feColorMatrix in="SourceAlpha" type="matrix" values="0 0 0 0 0 0 0 0 0 0 0 0 0 0 0 0 0 0 127 0" result="hardAlpha"/>
<feOffset dy="0.6"/>
<feGaussianBlur stdDeviation="0.6"/>
<feComposite in2="hardAlpha" operator="out"/>
<feColorMatrix type="matrix" values="0 0 0 0 0.894118 0 0 0 0 0.898039 0 0 0 0 0.905882 0 0 0 0.24 0"/>
<feBlend mode="normal" in2="BackgroundImageFix" result="effect1_dropShadow_9946_54717"/>
<feBlend mode="normal" in="SourceGraphic" in2="effect1_dropShadow_9946_54717" result="shape"/>
<feColorMatrix in="SourceAlpha" type="matrix" values="0 0 0 0 0 0 0 0 0 0 0 0 0 0 0 0 0 0 127 0" result="hardAlpha"/>
<feOffset dy="-2.4"/>
<feGaussianBlur stdDeviation="1.2"/>
<feComposite in2="hardAlpha" operator="arithmetic" k2="-1" k3="1"/>
<feColorMatrix type="matrix" values="0 0 0 0 0.813571 0 0 0 0 0.82 0 0 0 0 0.826429 0 0 0 0.32 0"/>
<feBlend mode="normal" in2="shape" result="effect2_innerShadow_9946_54717"/>
</filter>
<clipPath id="clip0_9946_54717">
<rect width="24" height="24" fill="white"/>
</clipPath>
</defs>
</svg>
