<svg width="24" height="24" viewBox="0 0 24 24" fill="none" xmlns="http://www.w3.org/2000/svg">
<g clip-path="url(#clip0_3944_59935)">
<g filter="url(#filter0_di_3944_59935)">
<path d="M18.1498 24H5.84985C3.86162 24 2.24985 22.3882 2.24985 20.4V3.6C2.24985 1.61177 3.86162 0 5.84985 0H12.3531C13.2982 0 14.2054 0.371665 14.8789 1.03476L20.6756 6.7423C21.3629 7.41897 21.7498 8.34309 21.7498 9.30754V20.4C21.7498 22.3882 20.1381 24 18.1498 24Z" fill="white"/>
<path d="M5.84946 0.450195H12.3534C13.1803 0.450258 13.9741 0.775316 14.5633 1.35547L20.3602 7.0625C20.9615 7.65458 21.2997 8.46372 21.2997 9.30762V20.4004C21.2994 22.1398 19.8896 23.5496 18.1502 23.5498H5.84946C4.11007 23.5496 2.70025 22.1398 2.70004 20.4004V3.59961C2.70025 1.86022 4.11007 0.450406 5.84946 0.450195Z" stroke="#E3E3E3" stroke-width="0.9"/>
</g>
<path d="M13.5 0.75V5.85C13.5 7.17548 14.5745 8.25 15.9 8.25H21" stroke="#E3E3E3" stroke-width="0.9"/>
<g filter="url(#filter1_i_3944_59935)">
<mask id="path-4-inside-1_3944_59935" fill="white">
<path d="M0 12.25C0 11.0074 1.00736 10 2.25 10H16.25C17.4926 10 18.5 11.0074 18.5 12.25V18.75C18.5 19.9926 17.4926 21 16.25 21H2.25C1.00736 21 0 19.9926 0 18.75V12.25Z"/>
</mask>
<path d="M0 12.25C0 11.0074 1.00736 10 2.25 10H16.25C17.4926 10 18.5 11.0074 18.5 12.25V18.75C18.5 19.9926 17.4926 21 16.25 21H2.25C1.00736 21 0 19.9926 0 18.75V12.25Z" fill="#3066F0"/>
<path d="M-0.6 12.25C-0.6 10.676 0.675988 9.4 2.25 9.4H16.25C17.824 9.4 19.1 10.676 19.1 12.25H17.9C17.9 11.3387 17.1613 10.6 16.25 10.6H2.25C1.33873 10.6 0.6 11.3387 0.6 12.25H-0.6ZM18.5 21H0H18.5ZM2.25 21C0.675988 21 -0.6 19.724 -0.6 18.15V12.25C-0.6 10.676 0.675988 9.4 2.25 9.4V10.6C1.33873 10.6 0.6 11.3387 0.6 12.25V18.75C0.6 19.9926 1.33873 21 2.25 21ZM16.25 9.4C17.824 9.4 19.1 10.676 19.1 12.25V18.15C19.1 19.724 17.824 21 16.25 21C17.1613 21 17.9 19.9926 17.9 18.75V12.25C17.9 11.3387 17.1613 10.6 16.25 10.6V9.4Z" fill="currentColor" fill-opacity="0.04" mask="url(#path-4-inside-1_3944_59935)"/>
<path d="M4.61719 12.7H5.47969V16.075C5.47813 16.3844 5.4125 16.6508 5.28281 16.8742C5.15313 17.0961 4.97188 17.2672 4.73906 17.3875C4.50781 17.5062 4.23828 17.5656 3.93047 17.5656C3.64922 17.5656 3.39609 17.5156 3.17109 17.4156C2.94766 17.3141 2.77031 17.1641 2.63906 16.9656C2.50781 16.7672 2.44219 16.5203 2.44219 16.225H3.30703C3.30859 16.3547 3.33672 16.4664 3.39141 16.5602C3.44766 16.6539 3.525 16.7258 3.62344 16.7758C3.72188 16.8258 3.83516 16.8508 3.96328 16.8508C4.10234 16.8508 4.22031 16.8219 4.31719 16.7641C4.41406 16.7047 4.4875 16.6172 4.5375 16.5016C4.58906 16.3859 4.61563 16.2437 4.61719 16.075V12.7ZM6.55505 17.5V12.7H8.35505C8.7238 12.7 9.03317 12.7687 9.28317 12.9062C9.53473 13.0437 9.72458 13.2328 9.8527 13.4734C9.98239 13.7125 10.0472 13.9844 10.0472 14.2891C10.0472 14.5969 9.98239 14.8703 9.8527 15.1094C9.72302 15.3484 9.53161 15.5367 9.27848 15.6742C9.02536 15.8102 8.71364 15.8781 8.34333 15.8781H7.15036V15.1633H8.22614C8.44177 15.1633 8.61833 15.1258 8.75583 15.0508C8.89333 14.9758 8.99489 14.8727 9.06052 14.7414C9.1277 14.6102 9.1613 14.4594 9.1613 14.2891C9.1613 14.1187 9.1277 13.9687 9.06052 13.8391C8.99489 13.7094 8.89255 13.6086 8.75348 13.5367C8.61598 13.4633 8.43864 13.4266 8.22145 13.4266H7.42458V17.5H6.55505ZM14.1501 14.2328C14.1111 14.1062 14.0572 13.993 13.9884 13.893C13.9212 13.7914 13.84 13.7047 13.7447 13.6328C13.6509 13.5609 13.5431 13.507 13.4212 13.4711C13.2994 13.4336 13.1665 13.4148 13.0228 13.4148C12.765 13.4148 12.5353 13.4797 12.3337 13.6094C12.1322 13.7391 11.9736 13.9297 11.8579 14.1812C11.7439 14.4312 11.6869 14.7359 11.6869 15.0953C11.6869 15.4578 11.7439 15.7648 11.8579 16.0164C11.972 16.268 12.1306 16.4594 12.3337 16.5906C12.5369 16.7203 12.7728 16.7852 13.0415 16.7852C13.2853 16.7852 13.4962 16.7383 13.6744 16.6445C13.854 16.5508 13.9923 16.418 14.0892 16.2461C14.1861 16.0727 14.2345 15.8695 14.2345 15.6367L14.4314 15.6672H13.1283V14.9875H15.0759V15.5641C15.0759 15.975 14.9884 16.3305 14.8134 16.6305C14.6384 16.9305 14.3978 17.1617 14.0915 17.3242C13.7853 17.4852 13.4337 17.5656 13.0369 17.5656C12.5947 17.5656 12.2064 17.4664 11.872 17.268C11.5392 17.068 11.279 16.7844 11.0915 16.4172C10.9056 16.0484 10.8126 15.6109 10.8126 15.1047C10.8126 14.7172 10.8673 14.3711 10.9767 14.0664C11.0876 13.7617 11.2423 13.5031 11.4408 13.2906C11.6392 13.0766 11.872 12.9141 12.1392 12.8031C12.4064 12.6906 12.697 12.6344 13.0111 12.6344C13.2767 12.6344 13.5244 12.6734 13.754 12.7516C13.9837 12.8281 14.1876 12.9375 14.3658 13.0797C14.5454 13.2219 14.6931 13.3906 14.8087 13.5859C14.9244 13.7812 15.0001 13.9969 15.0361 14.2328H14.1501Z" fill="white"/>
</g>
</g>
<defs>
<filter id="filter0_di_3944_59935" x="1.04985" y="-2.4" width="21.9" height="28.2" filterUnits="userSpaceOnUse" color-interpolation-filters="sRGB">
<feFlood flood-opacity="0" result="BackgroundImageFix"/>
<feColorMatrix in="SourceAlpha" type="matrix" values="0 0 0 0 0 0 0 0 0 0 0 0 0 0 0 0 0 0 127 0" result="hardAlpha"/>
<feOffset dy="0.6"/>
<feGaussianBlur stdDeviation="0.6"/>
<feComposite in2="hardAlpha" operator="out"/>
<feColorMatrix type="matrix" values="0 0 0 0 0.894118 0 0 0 0 0.898039 0 0 0 0 0.905882 0 0 0 0.24 0"/>
<feBlend mode="normal" in2="BackgroundImageFix" result="effect1_dropShadow_3944_59935"/>
<feBlend mode="normal" in="SourceGraphic" in2="effect1_dropShadow_3944_59935" result="shape"/>
<feColorMatrix in="SourceAlpha" type="matrix" values="0 0 0 0 0 0 0 0 0 0 0 0 0 0 0 0 0 0 127 0" result="hardAlpha"/>
<feOffset dy="-2.4"/>
<feGaussianBlur stdDeviation="1.2"/>
<feComposite in2="hardAlpha" operator="arithmetic" k2="-1" k3="1"/>
<feColorMatrix type="matrix" values="0 0 0 0 0.813571 0 0 0 0 0.82 0 0 0 0 0.826429 0 0 0 0.32 0"/>
<feBlend mode="normal" in2="shape" result="effect2_innerShadow_3944_59935"/>
</filter>
<filter id="filter1_i_3944_59935" x="0" y="10" width="18.5" height="13.4" filterUnits="userSpaceOnUse" color-interpolation-filters="sRGB">
<feFlood flood-opacity="0" result="BackgroundImageFix"/>
<feBlend mode="normal" in="SourceGraphic" in2="BackgroundImageFix" result="shape"/>
<feColorMatrix in="SourceAlpha" type="matrix" values="0 0 0 0 0 0 0 0 0 0 0 0 0 0 0 0 0 0 127 0" result="hardAlpha"/>
<feOffset dy="2.4"/>
<feGaussianBlur stdDeviation="1.2"/>
<feComposite in2="hardAlpha" operator="arithmetic" k2="-1" k3="1"/>
<feColorMatrix type="matrix" values="0 0 0 0 1 0 0 0 0 1 0 0 0 0 1 0 0 0 0.08 0"/>
<feBlend mode="normal" in2="shape" result="effect1_innerShadow_3944_59935"/>
</filter>
<clipPath id="clip0_3944_59935">
<rect width="24" height="24" fill="white"/>
</clipPath>
</defs>
</svg>
