<svg width="24" height="24" viewBox="0 0 24 24" fill="none" xmlns="http://www.w3.org/2000/svg">
<g clip-path="url(#clip0_3944_59957)">
<g filter="url(#filter0_di_3944_59957)">
<path d="M18.1498 24H5.84985C3.86162 24 2.24985 22.3882 2.24985 20.4V3.6C2.24985 1.61177 3.86162 0 5.84985 0H12.3531C13.2982 0 14.2054 0.371665 14.8789 1.03476L20.6756 6.7423C21.3629 7.41897 21.7498 8.34309 21.7498 9.30754V20.4C21.7498 22.3882 20.1381 24 18.1498 24Z" fill="white"/>
<path d="M5.84946 0.450195H12.3534C13.1803 0.450258 13.9741 0.775316 14.5633 1.35547L20.3602 7.0625C20.9615 7.65458 21.2997 8.46372 21.2997 9.30762V20.4004C21.2994 22.1398 19.8896 23.5496 18.1502 23.5498H5.84946C4.11007 23.5496 2.70025 22.1398 2.70004 20.4004V3.59961C2.70025 1.86022 4.11007 0.450406 5.84946 0.450195Z" stroke="#E3E3E3" stroke-width="0.9"/>
</g>
<path d="M13.5 0.75V5.85C13.5 7.17548 14.5745 8.25 15.9 8.25H21" stroke="#E3E3E3" stroke-width="0.9"/>
<g filter="url(#filter1_i_3944_59957)">
<mask id="path-4-inside-1_3944_59957" fill="white">
<path d="M0 12.25C0 11.0074 1.00736 10 2.25 10H18.25C19.4926 10 20.5 11.0074 20.5 12.25V18.75C20.5 19.9926 19.4926 21 18.25 21H2.25C1.00736 21 0 19.9926 0 18.75V12.25Z"/>
</mask>
<path d="M0 12.25C0 11.0074 1.00736 10 2.25 10H18.25C19.4926 10 20.5 11.0074 20.5 12.25V18.75C20.5 19.9926 19.4926 21 18.25 21H2.25C1.00736 21 0 19.9926 0 18.75V12.25Z" fill="#123FB3"/>
<path d="M-0.6 12.25C-0.6 10.676 0.675988 9.4 2.25 9.4H18.25C19.824 9.4 21.1 10.676 21.1 12.25H19.9C19.9 11.3387 19.1613 10.6 18.25 10.6H2.25C1.33873 10.6 0.6 11.3387 0.6 12.25H-0.6ZM20.5 21H0H20.5ZM2.25 21C0.675988 21 -0.6 19.724 -0.6 18.15V12.25C-0.6 10.676 0.675988 9.4 2.25 9.4V10.6C1.33873 10.6 0.6 11.3387 0.6 12.25V18.75C0.6 19.9926 1.33873 21 2.25 21ZM18.25 9.4C19.824 9.4 21.1 10.676 21.1 12.25V18.15C21.1 19.724 19.824 21 18.25 21C19.1613 21 19.9 19.9926 19.9 18.75V12.25C19.9 11.3387 19.1613 10.6 18.25 10.6V9.4Z" fill="currentColor" fill-opacity="0.04" mask="url(#path-4-inside-1_3944_59957)"/>
<path d="M4.35 17.5H2.72344V12.7H4.38281C4.85938 12.7 5.26875 12.7961 5.61094 12.9883C5.95469 13.1789 6.21875 13.4531 6.40313 13.8109C6.5875 14.1687 6.67969 14.5969 6.67969 15.0953C6.67969 15.5953 6.58672 16.025 6.40078 16.3844C6.21641 16.7437 5.95 17.0195 5.60156 17.2117C5.25469 17.4039 4.8375 17.5 4.35 17.5ZM3.59297 16.7477H4.30781C4.64219 16.7477 4.92109 16.6867 5.14453 16.5648C5.36797 16.4414 5.53594 16.2578 5.64844 16.0141C5.76094 15.7687 5.81719 15.4625 5.81719 15.0953C5.81719 14.7281 5.76094 14.4234 5.64844 14.1812C5.53594 13.9375 5.36953 13.7555 5.14922 13.6352C4.93047 13.5133 4.65859 13.4523 4.33359 13.4523H3.59297V16.7477ZM11.9269 15.1C11.9269 15.6172 11.83 16.0602 11.6363 16.4289C11.4441 16.7961 11.1816 17.0773 10.8488 17.2727C10.5175 17.468 10.1418 17.5656 9.72145 17.5656C9.30114 17.5656 8.92458 17.468 8.59177 17.2727C8.26052 17.0758 7.99802 16.7937 7.80427 16.4266C7.61208 16.0578 7.51598 15.6156 7.51598 15.1C7.51598 14.5828 7.61208 14.1406 7.80427 13.7734C7.99802 13.4047 8.26052 13.1227 8.59177 12.9273C8.92458 12.732 9.30114 12.6344 9.72145 12.6344C10.1418 12.6344 10.5175 12.732 10.8488 12.9273C11.1816 13.1227 11.4441 13.4047 11.6363 13.7734C11.83 14.1406 11.9269 14.5828 11.9269 15.1ZM11.0527 15.1C11.0527 14.7359 10.9957 14.4289 10.8816 14.1789C10.7691 13.9273 10.6129 13.7375 10.4129 13.6094C10.2129 13.4797 9.98239 13.4148 9.72145 13.4148C9.46052 13.4148 9.23005 13.4797 9.03005 13.6094C8.83005 13.7375 8.67302 13.9273 8.55895 14.1789C8.44645 14.4289 8.3902 14.7359 8.3902 15.1C8.3902 15.4641 8.44645 15.7719 8.55895 16.0234C8.67302 16.2734 8.83005 16.4633 9.03005 16.593C9.23005 16.7211 9.46052 16.7852 9.72145 16.7852C9.98239 16.7852 10.2129 16.7211 10.4129 16.593C10.6129 16.4633 10.7691 16.2734 10.8816 16.0234C10.9957 15.7719 11.0527 15.4641 11.0527 15.1ZM16.9896 14.3195H16.113C16.088 14.1758 16.0419 14.0484 15.9747 13.9375C15.9076 13.825 15.824 13.7297 15.724 13.6516C15.624 13.5734 15.5099 13.5148 15.3818 13.4758C15.2552 13.4352 15.1185 13.4148 14.9716 13.4148C14.7107 13.4148 14.4794 13.4805 14.2779 13.6117C14.0763 13.7414 13.9185 13.932 13.8044 14.1836C13.6904 14.4336 13.6333 14.7391 13.6333 15.1C13.6333 15.4672 13.6904 15.7766 13.8044 16.0281C13.9201 16.2781 14.0779 16.4672 14.2779 16.5953C14.4794 16.7219 14.7099 16.7852 14.9693 16.7852C15.113 16.7852 15.2474 16.7664 15.3724 16.7289C15.499 16.6898 15.6122 16.6328 15.7122 16.5578C15.8138 16.4828 15.899 16.3906 15.9677 16.2812C16.038 16.1719 16.0865 16.0469 16.113 15.9062L16.9896 15.9109C16.9568 16.1391 16.8857 16.3531 16.7763 16.5531C16.6685 16.7531 16.5271 16.9297 16.3521 17.0828C16.1771 17.2344 15.9724 17.3531 15.738 17.4391C15.5036 17.5234 15.2435 17.5656 14.9576 17.5656C14.5357 17.5656 14.1591 17.468 13.8279 17.2727C13.4966 17.0773 13.2357 16.7953 13.0451 16.4266C12.8544 16.0578 12.7591 15.6156 12.7591 15.1C12.7591 14.5828 12.8552 14.1406 13.0474 13.7734C13.2396 13.4047 13.5013 13.1227 13.8326 12.9273C14.1638 12.732 14.5388 12.6344 14.9576 12.6344C15.2247 12.6344 15.4732 12.6719 15.7029 12.7469C15.9326 12.8219 16.1372 12.932 16.3169 13.0773C16.4966 13.2211 16.6443 13.3977 16.7599 13.607C16.8771 13.8148 16.9536 14.0523 16.9896 14.3195Z" fill="white"/>
</g>
</g>
<defs>
<filter id="filter0_di_3944_59957" x="1.04985" y="-2.4" width="21.9" height="28.2" filterUnits="userSpaceOnUse" color-interpolation-filters="sRGB">
<feFlood flood-opacity="0" result="BackgroundImageFix"/>
<feColorMatrix in="SourceAlpha" type="matrix" values="0 0 0 0 0 0 0 0 0 0 0 0 0 0 0 0 0 0 127 0" result="hardAlpha"/>
<feOffset dy="0.6"/>
<feGaussianBlur stdDeviation="0.6"/>
<feComposite in2="hardAlpha" operator="out"/>
<feColorMatrix type="matrix" values="0 0 0 0 0.894118 0 0 0 0 0.898039 0 0 0 0 0.905882 0 0 0 0.24 0"/>
<feBlend mode="normal" in2="BackgroundImageFix" result="effect1_dropShadow_3944_59957"/>
<feBlend mode="normal" in="SourceGraphic" in2="effect1_dropShadow_3944_59957" result="shape"/>
<feColorMatrix in="SourceAlpha" type="matrix" values="0 0 0 0 0 0 0 0 0 0 0 0 0 0 0 0 0 0 127 0" result="hardAlpha"/>
<feOffset dy="-2.4"/>
<feGaussianBlur stdDeviation="1.2"/>
<feComposite in2="hardAlpha" operator="arithmetic" k2="-1" k3="1"/>
<feColorMatrix type="matrix" values="0 0 0 0 0.813571 0 0 0 0 0.82 0 0 0 0 0.826429 0 0 0 0.32 0"/>
<feBlend mode="normal" in2="shape" result="effect2_innerShadow_3944_59957"/>
</filter>
<filter id="filter1_i_3944_59957" x="0" y="10" width="20.5" height="13.4" filterUnits="userSpaceOnUse" color-interpolation-filters="sRGB">
<feFlood flood-opacity="0" result="BackgroundImageFix"/>
<feBlend mode="normal" in="SourceGraphic" in2="BackgroundImageFix" result="shape"/>
<feColorMatrix in="SourceAlpha" type="matrix" values="0 0 0 0 0 0 0 0 0 0 0 0 0 0 0 0 0 0 127 0" result="hardAlpha"/>
<feOffset dy="2.4"/>
<feGaussianBlur stdDeviation="1.2"/>
<feComposite in2="hardAlpha" operator="arithmetic" k2="-1" k3="1"/>
<feColorMatrix type="matrix" values="0 0 0 0 1 0 0 0 0 1 0 0 0 0 1 0 0 0 0.08 0"/>
<feBlend mode="normal" in2="shape" result="effect1_innerShadow_3944_59957"/>
</filter>
<clipPath id="clip0_3944_59957">
<rect width="24" height="24" fill="white"/>
</clipPath>
</defs>
</svg>
