<svg width="24" height="24" viewBox="0 0 24 24" fill="none" xmlns="http://www.w3.org/2000/svg">
<g clip-path="url(#clip0_3944_59956)">
<g filter="url(#filter0_di_3944_59956)">
<path d="M18.1498 24H5.84985C3.86162 24 2.24985 22.3882 2.24985 20.4V3.6C2.24985 1.61177 3.86162 0 5.84985 0H12.3531C13.2982 0 14.2054 0.371665 14.8789 1.03476L20.6756 6.7423C21.3629 7.41897 21.7498 8.34309 21.7498 9.30754V20.4C21.7498 22.3882 20.1381 24 18.1498 24Z" fill="white"/>
<path d="M5.84946 0.450195H12.3534C13.1803 0.450258 13.9741 0.775316 14.5633 1.35547L20.3602 7.0625C20.9615 7.65458 21.2997 8.46372 21.2997 9.30762V20.4004C21.2994 22.1398 19.8896 23.5496 18.1502 23.5498H5.84946C4.11007 23.5496 2.70025 22.1398 2.70004 20.4004V3.59961C2.70025 1.86022 4.11007 0.450406 5.84946 0.450195Z" stroke="#E3E3E3" stroke-width="0.9"/>
</g>
<path d="M13.5 0.75V5.85C13.5 7.17548 14.5745 8.25 15.9 8.25H21" stroke="#E3E3E3" stroke-width="0.9"/>
<g filter="url(#filter1_i_3944_59956)">
<mask id="path-4-inside-1_3944_59956" fill="white">
<path d="M0 13.25C0 12.0074 1.00736 11 2.25 11H20.25C21.4926 11 22.5 12.0074 22.5 13.25V18.75C22.5 19.9926 21.4926 21 20.25 21H2.25C1.00736 21 0 19.9926 0 18.75V13.25Z"/>
</mask>
<path d="M0 13.25C0 12.0074 1.00736 11 2.25 11H20.25C21.4926 11 22.5 12.0074 22.5 13.25V18.75C22.5 19.9926 21.4926 21 20.25 21H2.25C1.00736 21 0 19.9926 0 18.75V13.25Z" fill="#123FB3"/>
<path d="M-0.6 13.25C-0.6 11.676 0.675988 10.4 2.25 10.4H20.25C21.824 10.4 23.1 11.676 23.1 13.25H21.9C21.9 12.3387 21.1613 11.6 20.25 11.6H2.25C1.33873 11.6 0.6 12.3387 0.6 13.25H-0.6ZM22.5 21H0H22.5ZM2.25 21C0.675988 21 -0.6 19.724 -0.6 18.15V13.25C-0.6 11.676 0.675988 10.4 2.25 10.4V11.6C1.33873 11.6 0.6 12.3387 0.6 13.25V18.75C0.6 19.9926 1.33873 21 2.25 21ZM20.25 10.4C21.824 10.4 23.1 11.676 23.1 13.25V18.15C23.1 19.724 21.824 21 20.25 21C21.1613 21 21.9 19.9926 21.9 18.75V13.25C21.9 12.3387 21.1613 11.6 20.25 11.6V10.4Z" fill="currentColor" fill-opacity="0.04" mask="url(#path-4-inside-1_3944_59956)"/>
<path d="M3.50881 17.5L2.35937 13.4273H3.15284L3.88665 16.4202H3.92443L4.70795 13.4273H5.42983L6.21534 16.4222H6.25114L6.98494 13.4273H7.77841L6.62898 17.5H5.90114L5.0858 14.6423H5.05398L4.23665 17.5H3.50881ZM11.8224 15.4636C11.8224 15.9025 11.7402 16.2783 11.5758 16.5912C11.4128 16.9027 11.1901 17.1414 10.9077 17.3071C10.6266 17.4728 10.3078 17.5557 9.95113 17.5557C9.5945 17.5557 9.275 17.4728 8.99261 17.3071C8.71155 17.1401 8.48882 16.9008 8.32443 16.5892C8.16136 16.2763 8.07983 15.9011 8.07983 15.4636C8.07983 15.0248 8.16136 14.6496 8.32443 14.3381C8.48882 14.0252 8.71155 13.7859 8.99261 13.6202C9.275 13.4545 9.5945 13.3716 9.95113 13.3716C10.3078 13.3716 10.6266 13.4545 10.9077 13.6202C11.1901 13.7859 11.4128 14.0252 11.5758 14.3381C11.7402 14.6496 11.8224 15.0248 11.8224 15.4636ZM11.0807 15.4636C11.0807 15.1547 11.0323 14.8942 10.9355 14.6821C10.8401 14.4687 10.7075 14.3076 10.5378 14.1989C10.3681 14.0888 10.1725 14.0338 9.95113 14.0338C9.72973 14.0338 9.53418 14.0888 9.36449 14.1989C9.19479 14.3076 9.06155 14.4687 8.96477 14.6821C8.86932 14.8942 8.82159 15.1547 8.82159 15.4636C8.82159 15.7725 8.86932 16.0337 8.96477 16.2472C9.06155 16.4593 9.19479 16.6204 9.36449 16.7304C9.53418 16.8391 9.72973 16.8935 9.95113 16.8935C10.1725 16.8935 10.3681 16.8391 10.5378 16.7304C10.7075 16.6204 10.8401 16.4593 10.9355 16.2472C11.0323 16.0337 11.0807 15.7725 11.0807 15.4636ZM12.632 17.5V13.4273H14.1592C14.4721 13.4273 14.7346 13.4816 14.9467 13.5903C15.1602 13.6991 15.3213 13.8515 15.43 14.0477C15.54 14.2426 15.595 14.47 15.595 14.7298C15.595 14.991 15.5393 15.2177 15.428 15.4099C15.3179 15.6009 15.1555 15.7487 14.9408 15.8534C14.726 15.9568 14.4622 16.0085 14.1493 16.0085H13.0615V15.396H14.0499C14.2328 15.396 14.3826 15.3708 14.4993 15.3205C14.616 15.2687 14.7021 15.1938 14.7578 15.0957C14.8148 14.9963 14.8433 14.8743 14.8433 14.7298C14.8433 14.5853 14.8148 14.462 14.7578 14.3599C14.7008 14.2565 14.614 14.1783 14.4973 14.1253C14.3806 14.0709 14.2302 14.0438 14.0459 14.0438H13.3697V17.5H12.632ZM14.7359 15.6545L15.7442 17.5H14.9209L13.9305 15.6545H14.7359ZM17.7663 17.5H16.3861V13.4273H17.7941C18.1985 13.4273 18.5458 13.5088 18.8361 13.6719C19.1278 13.8336 19.3519 14.0663 19.5083 14.3699C19.6647 14.6735 19.743 15.0367 19.743 15.4597C19.743 15.8839 19.6641 16.2485 19.5063 16.5534C19.3499 16.8583 19.1238 17.0923 18.8282 17.2554C18.5339 17.4185 18.1799 17.5 17.7663 17.5ZM17.1239 16.8616H17.7305C18.0142 16.8616 18.2508 16.8099 18.4404 16.7065C18.63 16.6018 18.7725 16.446 18.868 16.2392C18.9634 16.0311 19.0111 15.7712 19.0111 15.4597C19.0111 15.1481 18.9634 14.8896 18.868 14.6841C18.7725 14.4773 18.6313 14.3228 18.4444 14.2207C18.2588 14.1173 18.0281 14.0656 17.7523 14.0656H17.1239V16.8616Z" fill="white"/>
</g>
</g>
<defs>
<filter id="filter0_di_3944_59956" x="1.04985" y="-2.4" width="21.9" height="28.2" filterUnits="userSpaceOnUse" color-interpolation-filters="sRGB">
<feFlood flood-opacity="0" result="BackgroundImageFix"/>
<feColorMatrix in="SourceAlpha" type="matrix" values="0 0 0 0 0 0 0 0 0 0 0 0 0 0 0 0 0 0 127 0" result="hardAlpha"/>
<feOffset dy="0.6"/>
<feGaussianBlur stdDeviation="0.6"/>
<feComposite in2="hardAlpha" operator="out"/>
<feColorMatrix type="matrix" values="0 0 0 0 0.894118 0 0 0 0 0.898039 0 0 0 0 0.905882 0 0 0 0.24 0"/>
<feBlend mode="normal" in2="BackgroundImageFix" result="effect1_dropShadow_3944_59956"/>
<feBlend mode="normal" in="SourceGraphic" in2="effect1_dropShadow_3944_59956" result="shape"/>
<feColorMatrix in="SourceAlpha" type="matrix" values="0 0 0 0 0 0 0 0 0 0 0 0 0 0 0 0 0 0 127 0" result="hardAlpha"/>
<feOffset dy="-2.4"/>
<feGaussianBlur stdDeviation="1.2"/>
<feComposite in2="hardAlpha" operator="arithmetic" k2="-1" k3="1"/>
<feColorMatrix type="matrix" values="0 0 0 0 0.813571 0 0 0 0 0.82 0 0 0 0 0.826429 0 0 0 0.32 0"/>
<feBlend mode="normal" in2="shape" result="effect2_innerShadow_3944_59956"/>
</filter>
<filter id="filter1_i_3944_59956" x="0" y="11" width="22.5" height="12.4" filterUnits="userSpaceOnUse" color-interpolation-filters="sRGB">
<feFlood flood-opacity="0" result="BackgroundImageFix"/>
<feBlend mode="normal" in="SourceGraphic" in2="BackgroundImageFix" result="shape"/>
<feColorMatrix in="SourceAlpha" type="matrix" values="0 0 0 0 0 0 0 0 0 0 0 0 0 0 0 0 0 0 127 0" result="hardAlpha"/>
<feOffset dy="2.4"/>
<feGaussianBlur stdDeviation="1.2"/>
<feComposite in2="hardAlpha" operator="arithmetic" k2="-1" k3="1"/>
<feColorMatrix type="matrix" values="0 0 0 0 1 0 0 0 0 1 0 0 0 0 1 0 0 0 0.08 0"/>
<feBlend mode="normal" in2="shape" result="effect1_innerShadow_3944_59956"/>
</filter>
<clipPath id="clip0_3944_59956">
<rect width="24" height="24" fill="white"/>
</clipPath>
</defs>
</svg>
