<svg width="24" height="24" viewBox="0 0 24 24" fill="none" xmlns="http://www.w3.org/2000/svg">
<path d="M20.6077 5.66088C20.6077 5.07955 20.6073 4.78867 20.4942 4.56663C20.3947 4.37133 20.2364 4.21265 20.0412 4.11313C19.8192 4 19.5279 4 18.9465 4H5.66037C5.07904 4 4.78867 4 4.56663 4.11313C4.37133 4.21265 4.21265 4.37133 4.11313 4.56663C4 4.78867 4 5.07955 4 5.66088V6.42614C4 6.68002 4 6.80705 4.02868 6.92651C4.05411 7.03242 4.09615 7.1336 4.15306 7.22646C4.21723 7.33118 4.30715 7.4211 4.48655 7.6005L9.74159 12.8555C9.9211 13.035 10.0104 13.1243 10.0746 13.2291C10.1315 13.3219 10.1741 13.4234 10.1995 13.5294C10.2279 13.6476 10.2279 13.7731 10.2279 14.0219V18.9584C10.2279 19.8481 10.2279 20.2933 10.4153 20.5612C10.5789 20.7952 10.8314 20.9513 11.1138 20.993C11.4372 21.0408 11.8354 20.842 12.6312 20.4441L13.4616 20.0289C13.7949 19.8623 13.9611 19.7787 14.0829 19.6543C14.1905 19.5444 14.2729 19.4125 14.323 19.2671C14.3798 19.1025 14.3798 18.9158 14.3798 18.5432V14.0296C14.3798 13.7757 14.3798 13.6489 14.4085 13.5294C14.4339 13.4234 14.4759 13.3219 14.5329 13.2291C14.5967 13.125 14.6857 13.036 14.8628 12.8589L14.8664 12.8555L20.1214 7.6005C20.3009 7.42098 20.3902 7.33122 20.4544 7.22646C20.5113 7.1336 20.554 7.03242 20.5794 6.92651C20.6077 6.80827 20.6077 6.6826 20.6077 6.43386V5.66088Z" stroke="currentColor" stroke-width="2" stroke-linejoin="bevel"/>
</svg>
