<svg width="24" height="24" viewBox="0 0 24 24" fill="none" xmlns="http://www.w3.org/2000/svg">
<path d="M5.63602 12.707L7.46402 14.536L8.88002 13.12L7.05002 11.293L8.46402 9.87901L10.293 11.707L11.707 10.293L9.88002 8.46401L11.294 7.05001L13.12 8.88001L14.535 7.46501L12.706 5.63701L15.535 2.80901C15.7225 2.62154 15.9769 2.51622 16.242 2.51622C16.5072 2.51622 16.7615 2.62154 16.949 2.80901L21.191 7.05101C21.3785 7.23854 21.4838 7.49284 21.4838 7.75801C21.4838 8.02317 21.3785 8.27748 21.191 8.46501L8.46402 21.192C8.27649 21.3795 8.02218 21.4848 7.75702 21.4848C7.49186 21.4848 7.23755 21.3795 7.05002 21.192L2.80802 16.95C2.62055 16.7625 2.51523 16.5082 2.51523 16.243C2.51523 15.9778 2.62055 15.7235 2.80802 15.536L5.63602 12.707ZM14.121 18.363L18.364 14.121L21 16.757V21H16.758L14.121 18.363ZM5.63602 9.87801L2.80702 7.05001C2.71404 6.95713 2.64028 6.84685 2.58996 6.72545C2.53964 6.60405 2.51373 6.47392 2.51373 6.34251C2.51373 6.21109 2.53964 6.08097 2.58996 5.95957C2.64028 5.83817 2.71404 5.72788 2.80702 5.63501L5.63602 2.80701C5.82355 2.61954 6.07786 2.51422 6.34302 2.51422C6.60818 2.51422 6.86249 2.61954 7.05002 2.80701L9.88002 5.63501L5.63602 9.87801Z" fill="currentColor"/>
</svg>
