<svg width="24" height="24" viewBox="0 0 24 24" fill="none" xmlns="http://www.w3.org/2000/svg">
<path d="M4 6.414L0.757004 3.172L2.172 1.757L5.414 5H20.656C20.8119 4.99999 20.9656 5.03642 21.1049 5.10637C21.2442 5.17632 21.3652 5.27787 21.4582 5.4029C21.5513 5.52793 21.6139 5.67299 21.6409 5.82649C21.6679 5.97999 21.6587 6.13769 21.614 6.287L19.214 14.287C19.1523 14.4931 19.0257 14.6738 18.8531 14.8022C18.6805 14.9307 18.4711 15 18.256 15H6V17H17V19H5C4.73479 19 4.48043 18.8946 4.2929 18.7071C4.10536 18.5196 4 18.2652 4 18V6.414ZM6 7V13H17.512L19.312 7H6ZM5.5 23C5.10218 23 4.72065 22.842 4.43934 22.5607C4.15804 22.2794 4 21.8978 4 21.5C4 21.1022 4.15804 20.7206 4.43934 20.4393C4.72065 20.158 5.10218 20 5.5 20C5.89783 20 6.27936 20.158 6.56066 20.4393C6.84197 20.7206 7 21.1022 7 21.5C7 21.8978 6.84197 22.2794 6.56066 22.5607C6.27936 22.842 5.89783 23 5.5 23ZM17.5 23C17.1022 23 16.7206 22.842 16.4393 22.5607C16.158 22.2794 16 21.8978 16 21.5C16 21.1022 16.158 20.7206 16.4393 20.4393C16.7206 20.158 17.1022 20 17.5 20C17.8978 20 18.2794 20.158 18.5607 20.4393C18.842 20.7206 19 21.1022 19 21.5C19 21.8978 18.842 22.2794 18.5607 22.5607C18.2794 22.842 17.8978 23 17.5 23Z" fill="currentColor"/>
</svg>
