<svg width="127" height="19" viewBox="0 0 127 19" fill="none" xmlns="http://www.w3.org/2000/svg">
<path d="M0.706677 5.4194L18.0788 0.0893364C18.577 -0.0635209 18.9475 0.552405 18.579 0.920895L10.5692 8.93066C10.3172 9.18264 10.4957 9.6135 10.852 9.6135H14.8058C15.2526 9.6135 15.4751 10.1549 15.1573 10.4691L6.87425 18.658C6.55846 18.9702 6.02273 18.7465 6.02273 18.3024V13.9908C6.02273 13.7699 5.84364 13.5908 5.62273 13.5908H1C0.447715 13.5908 0 13.1431 0 12.5908V6.37542C0 5.93612 0.286701 5.54826 0.706677 5.4194Z" fill="currentColor"/>
<path d="M22.7016 13.9999V4.32011H26.4176C27.1149 4.32011 27.6952 4.43055 28.1587 4.65143C28.6221 4.86798 28.9686 5.16681 29.1981 5.54794C29.4276 5.92474 29.5424 6.35134 29.5424 6.82775C29.5424 7.22187 29.4666 7.55968 29.315 7.8412C29.1678 8.11838 28.9664 8.34359 28.7109 8.51683C28.4553 8.69007 28.1695 8.81567 27.8533 8.89363V8.99108C28.1998 9.00407 28.529 9.10801 28.8408 9.30291C29.157 9.49347 29.4146 9.76199 29.6139 10.1085C29.8174 10.4549 29.9192 10.8729 29.9192 11.3623C29.9192 11.8647 29.7979 12.3151 29.5554 12.7136C29.3172 13.1077 28.9534 13.4217 28.464 13.6555C27.9789 13.8851 27.3661 13.9999 26.6255 13.9999H22.7016ZM24.4557 12.5382H26.3396C26.9763 12.5382 27.4354 12.4147 27.7169 12.1679C28.0027 11.921 28.1457 11.607 28.1457 11.2259C28.1457 10.9357 28.0742 10.6758 27.9313 10.4463C27.7884 10.2167 27.5848 10.0348 27.3206 9.90058C27.0608 9.76632 26.7533 9.69919 26.3981 9.69919H24.4557V12.5382ZM24.4557 8.43888H26.1967C26.4956 8.43888 26.7663 8.38257 27.0088 8.26997C27.2513 8.15736 27.4419 7.99928 27.5805 7.79572C27.7234 7.58784 27.7949 7.34313 27.7949 7.06162C27.7949 6.68916 27.6628 6.38166 27.3986 6.13912C27.1344 5.89225 26.7468 5.76882 26.2357 5.76882H24.4557V8.43888Z" fill="currentColor"/>
<path d="M32.1995 13.9999H30.322L33.7391 4.32011H35.896L39.3066 13.9999H37.4356L34.85 6.30803H34.7721L32.1995 13.9999ZM32.2644 10.2059H37.3642V11.6092H32.2644V10.2059Z" fill="currentColor"/>
<path d="M48.0509 4.32011V13.9999H46.4787L41.9247 7.40593H41.8403V13.9999H40.0862V4.32011H41.6584L46.2124 10.914H46.2968V4.32011H48.0509Z" fill="currentColor"/>
<path d="M49.4541 13.9999V4.32011H51.2082V8.7702H51.3251L55.1061 4.32011H57.2434L53.5014 8.66625L57.2759 13.9999H55.1645L52.2801 9.85511L51.2082 11.1219V13.9999H49.4541Z" fill="currentColor"/>
<path d="M59.2118 13.9999H57.3344L60.7515 4.32011H62.9083L66.319 13.9999H64.448L61.8624 6.30803H61.7844L59.2118 13.9999ZM59.2768 10.2059H64.3765V11.6092H59.2768V10.2059Z" fill="currentColor"/>
<path d="M68.8526 4.32011V13.9999H67.0986V4.32011H68.8526Z" fill="currentColor"/>
<path d="M71.4317 14.1103C71.1372 14.1103 70.8882 14.0107 70.6846 13.8115C70.4854 13.6079 70.3858 13.361 70.3858 13.0709C70.3858 12.7807 70.4854 12.536 70.6846 12.3368C70.8882 12.1332 71.1372 12.0314 71.4317 12.0314C71.7262 12.0314 71.9731 12.1332 72.1723 12.3368C72.3759 12.536 72.4777 12.7807 72.4777 13.0709C72.4777 13.361 72.3759 13.6079 72.1723 13.8115C71.9731 14.0107 71.7262 14.1103 71.4317 14.1103Z" fill="currentColor"/>
<path d="M75.2581 13.9999H73.3807L76.7978 4.32011H78.9546L82.3653 13.9999H80.4943L77.9087 6.30803H77.8308L75.2581 13.9999ZM75.3231 10.2059H80.4229V11.6092H75.3231V10.2059Z" fill="currentColor"/>
<path d="M86.9063 14.1298C86.0185 14.1298 85.2367 13.9284 84.5611 13.5256C83.8898 13.1228 83.3658 12.5511 82.989 11.8105C82.6122 11.0699 82.4238 10.1908 82.4238 9.17298C82.4238 8.13354 82.6165 7.24136 83.002 6.49643C83.3917 5.7515 83.9201 5.18197 84.5871 4.78785C85.2541 4.3894 86.0098 4.19018 86.8544 4.19018C87.3914 4.19018 87.8895 4.26813 88.3486 4.42405C88.812 4.57997 89.2234 4.80301 89.5829 5.09319C89.9424 5.37903 90.2369 5.71902 90.4664 6.11313C90.7003 6.50725 90.8562 6.94035 90.9342 7.41243H89.1476C89.0697 7.1569 88.9614 6.92736 88.8228 6.7238C88.6885 6.52025 88.524 6.34701 88.3291 6.20409C88.1385 6.05683 87.922 5.94639 87.6794 5.87277C87.4369 5.79914 87.1684 5.76232 86.8739 5.76232C86.3585 5.76232 85.8972 5.89442 85.4901 6.15861C85.083 6.41847 84.7625 6.80176 84.5286 7.30849C84.2991 7.81088 84.1843 8.42588 84.1843 9.15349C84.1843 9.88542 84.2991 10.5048 84.5286 11.0115C84.7582 11.5182 85.0787 11.9037 85.4901 12.1679C85.9015 12.4277 86.378 12.5576 86.9193 12.5576C87.4087 12.5576 87.8332 12.4645 88.1926 12.2783C88.5521 12.0877 88.8293 11.8192 89.0242 11.4727C89.2191 11.1263 89.3165 10.717 89.3165 10.2449L89.7193 10.3099H87.0882V8.9391H91.0186V10.0955C91.0186 10.927 90.8432 11.6438 90.4924 12.2458C90.1416 12.8478 89.6543 13.3134 89.0307 13.6426C88.4114 13.9674 87.7032 14.1298 86.9063 14.1298Z" fill="currentColor"/>
<path d="M92.214 13.9999V4.32011H98.5155V5.78831H93.968V8.3869H98.1777V9.83562H93.968V12.5317H98.5415V13.9999H92.214Z" fill="currentColor"/>
<path d="M107.767 4.32011V13.9999H106.194L101.64 7.40593H101.556V13.9999H99.8019V4.32011H101.374L105.928 10.914H106.012V4.32011H107.767Z" fill="currentColor"/>
<path d="M113.36 14.1298C112.511 14.1298 111.751 13.9327 111.08 13.5386C110.413 13.1445 109.887 12.5771 109.501 11.8365C109.12 11.0959 108.929 10.2059 108.929 9.16648C108.929 8.12271 109.122 7.23053 109.508 6.48993C109.897 5.745 110.426 5.17548 111.093 4.78136C111.764 4.38724 112.52 4.19018 113.36 4.19018C113.893 4.19018 114.391 4.26597 114.854 4.41755C115.322 4.56914 115.738 4.79218 116.102 5.08669C116.465 5.37687 116.762 5.73417 116.992 6.15861C117.225 6.57872 117.379 7.05729 117.453 7.59433H115.686C115.638 7.29983 115.545 7.03997 115.406 6.81475C115.272 6.58954 115.103 6.39898 114.9 6.24306C114.7 6.08282 114.473 5.96372 114.218 5.88576C113.962 5.80347 113.687 5.76232 113.392 5.76232C112.864 5.76232 112.396 5.89442 111.989 6.15861C111.582 6.41847 111.264 6.80393 111.034 7.31498C110.805 7.82171 110.69 8.43888 110.69 9.16648C110.69 9.90275 110.805 10.5242 111.034 11.031C111.268 11.5334 111.586 11.9145 111.989 12.1744C112.396 12.4299 112.862 12.5576 113.386 12.5576C113.676 12.5576 113.947 12.5208 114.198 12.4472C114.449 12.3692 114.677 12.2545 114.88 12.1029C115.088 11.947 115.259 11.7607 115.393 11.5442C115.532 11.3233 115.629 11.0699 115.686 10.7841H117.453C117.388 11.2475 117.245 11.6828 117.024 12.0899C116.807 12.4927 116.522 12.8478 116.166 13.1553C115.816 13.4585 115.404 13.6967 114.932 13.8699C114.46 14.0432 113.936 14.1298 113.36 14.1298Z" fill="currentColor"/>
<path d="M117.914 4.32011H119.895L122.26 8.60778H122.364L124.729 4.32011H126.71L123.183 10.3878V13.9999H121.435V10.3878L117.914 4.32011Z" fill="currentColor"/>
</svg>
